<svg width="596" height="595" viewBox="0 0 596 595" fill="none" xmlns="http://www.w3.org/2000/svg">
<rect x="0.5" width="595" height="595" rx="32" fill="white"/>
<path d="M127.472 138.5V134.788H130.416V119.812H127.472V116.1H136.688C139.696 116.1 141.979 116.868 143.536 118.404C145.115 119.919 145.904 122.18 145.904 125.188V129.412C145.904 132.42 145.115 134.692 143.536 136.228C141.979 137.743 139.696 138.5 136.688 138.5H127.472ZM134.64 134.66H136.752C138.459 134.66 139.707 134.212 140.496 133.316C141.285 132.42 141.68 131.161 141.68 129.54V125.06C141.68 123.417 141.285 122.159 140.496 121.284C139.707 120.388 138.459 119.94 136.752 119.94H134.64V134.66ZM149.553 138.5V122.628H153.585V138.5H149.553ZM151.569 120.772C150.843 120.772 150.225 120.537 149.713 120.068C149.222 119.599 148.977 118.98 148.977 118.212C148.977 117.444 149.222 116.825 149.713 116.356C150.225 115.887 150.843 115.652 151.569 115.652C152.315 115.652 152.934 115.887 153.425 116.356C153.915 116.825 154.161 117.444 154.161 118.212C154.161 118.98 153.915 119.599 153.425 120.068C152.934 120.537 152.315 120.772 151.569 120.772ZM162.981 138.948C161.85 138.948 160.837 138.756 159.941 138.372C159.045 137.967 158.33 137.391 157.797 136.644C157.285 135.876 157.029 134.948 157.029 133.86C157.029 132.772 157.285 131.865 157.797 131.14C158.33 130.393 159.055 129.839 159.973 129.476C160.911 129.092 161.978 128.9 163.173 128.9H167.525V128.004C167.525 127.257 167.29 126.649 166.821 126.18C166.351 125.689 165.605 125.444 164.581 125.444C163.578 125.444 162.831 125.679 162.341 126.148C161.85 126.596 161.53 127.183 161.381 127.908L157.669 126.66C157.925 125.849 158.33 125.113 158.885 124.452C159.461 123.769 160.218 123.225 161.157 122.82C162.117 122.393 163.279 122.18 164.645 122.18C166.735 122.18 168.389 122.703 169.605 123.748C170.821 124.793 171.429 126.308 171.429 128.292V134.212C171.429 134.852 171.727 135.172 172.325 135.172H173.605V138.5H170.917C170.127 138.5 169.477 138.308 168.965 137.924C168.453 137.54 168.197 137.028 168.197 136.388V136.356H167.589C167.503 136.612 167.311 136.953 167.013 137.38C166.714 137.785 166.245 138.148 165.605 138.468C164.965 138.788 164.09 138.948 162.981 138.948ZM163.685 135.684C164.815 135.684 165.733 135.375 166.437 134.756C167.162 134.116 167.525 133.273 167.525 132.228V131.908H163.461C162.714 131.908 162.127 132.068 161.701 132.388C161.274 132.708 161.061 133.156 161.061 133.732C161.061 134.308 161.285 134.777 161.733 135.14C162.181 135.503 162.831 135.684 163.685 135.684ZM192.806 138.948C190.16 138.948 188.038 138.223 186.438 136.772C184.838 135.3 184.038 133.081 184.038 130.116V124.484C184.038 121.604 184.838 119.417 186.438 117.924C188.038 116.409 190.16 115.652 192.806 115.652C195.472 115.652 197.595 116.409 199.174 117.924C200.774 119.417 201.574 121.604 201.574 124.484V130.116C201.574 133.081 200.774 135.3 199.174 136.772C197.595 138.223 195.472 138.948 192.806 138.948ZM192.806 135.3C194.406 135.3 195.579 134.863 196.326 133.988C197.094 133.113 197.478 131.865 197.478 130.244V124.292C197.478 122.649 197.051 121.412 196.198 120.58C195.366 119.727 194.235 119.3 192.806 119.3C191.334 119.3 190.182 119.737 189.35 120.612C188.539 121.487 188.134 122.713 188.134 124.292V130.244C188.134 131.929 188.518 133.199 189.286 134.052C190.075 134.884 191.248 135.3 192.806 135.3ZM204.532 138.5V135.812C204.532 134.255 204.788 132.964 205.299 131.94C205.812 130.895 206.548 130.041 207.508 129.38C208.489 128.697 209.684 128.143 211.092 127.716L213.236 127.044C214.025 126.788 214.686 126.479 215.22 126.116C215.753 125.732 216.158 125.273 216.436 124.74C216.734 124.207 216.884 123.599 216.884 122.916V122.788C216.884 121.721 216.521 120.879 215.796 120.26C215.07 119.62 214.078 119.3 212.82 119.3C211.582 119.3 210.58 119.641 209.812 120.324C209.065 120.985 208.692 121.945 208.692 123.204V123.78H204.596V123.268C204.596 121.647 204.958 120.271 205.684 119.14C206.409 118.009 207.39 117.145 208.628 116.548C209.886 115.951 211.284 115.652 212.82 115.652C214.356 115.652 215.742 115.951 216.98 116.548C218.217 117.124 219.188 117.945 219.892 119.012C220.617 120.057 220.98 121.295 220.98 122.724V123.044C220.98 124.473 220.681 125.689 220.083 126.692C219.508 127.673 218.718 128.484 217.716 129.124C216.713 129.743 215.572 130.255 214.292 130.66L212.244 131.3C211.326 131.577 210.612 131.887 210.1 132.228C209.588 132.548 209.225 132.911 209.012 133.316C208.82 133.7 208.724 134.169 208.724 134.724V134.852H220.788V138.5H204.532ZM221.675 144.9L231.084 116.1H235.116L225.708 144.9H221.675ZM242.85 138.5V119.108H242.274L239.266 126.212H234.978L239.554 116.1H246.946V138.5H242.85ZM257.319 138.5V119.108H256.743L253.735 126.212H249.447L254.023 116.1H261.415V138.5H257.319ZM281.128 138.948C279.55 138.948 278.152 138.617 276.936 137.956C275.742 137.273 274.803 136.324 274.12 135.108C273.459 133.871 273.128 132.42 273.128 130.756V130.372C273.128 128.708 273.459 127.268 274.12 126.052C274.782 124.815 275.71 123.865 276.904 123.204C278.099 122.521 279.486 122.18 281.064 122.18C282.622 122.18 283.976 122.532 285.128 123.236C286.28 123.919 287.176 124.879 287.816 126.116C288.456 127.332 288.776 128.751 288.776 130.372V131.748H277.224C277.267 132.836 277.672 133.721 278.44 134.404C279.208 135.087 280.147 135.428 281.256 135.428C282.387 135.428 283.219 135.183 283.752 134.692C284.286 134.201 284.691 133.657 284.968 133.06L288.264 134.788C287.966 135.343 287.528 135.951 286.952 136.612C286.398 137.252 285.651 137.807 284.712 138.276C283.774 138.724 282.579 138.948 281.128 138.948ZM277.256 128.74H284.68C284.595 127.823 284.222 127.087 283.56 126.532C282.92 125.977 282.078 125.7 281.032 125.7C279.944 125.7 279.08 125.977 278.44 126.532C277.8 127.087 277.406 127.823 277.256 128.74ZM292.365 138.5V122.628H296.333V124.708H296.909C297.165 124.153 297.645 123.631 298.349 123.14C299.053 122.628 300.12 122.372 301.549 122.372C302.786 122.372 303.864 122.66 304.781 123.236C305.72 123.791 306.445 124.569 306.957 125.572C307.469 126.553 307.725 127.705 307.725 129.028V138.5H303.693V129.348C303.693 128.153 303.394 127.257 302.797 126.66C302.221 126.063 301.389 125.764 300.301 125.764C299.064 125.764 298.104 126.18 297.421 127.012C296.738 127.823 296.397 128.964 296.397 130.436V138.5H292.365ZM317.726 138.5C316.681 138.5 315.828 138.18 315.166 137.54C314.526 136.879 314.206 136.004 314.206 134.916V125.956H310.238V122.628H314.206V117.7H318.238V122.628H322.59V125.956H318.238V134.212C318.238 134.852 318.537 135.172 319.134 135.172H322.206V138.5H317.726ZM326.24 138.5V122.628H330.208V124.42H330.784C331.019 123.78 331.403 123.311 331.936 123.012C332.491 122.713 333.131 122.564 333.856 122.564H335.776V126.148H333.792C332.768 126.148 331.925 126.425 331.264 126.98C330.603 127.513 330.272 128.345 330.272 129.476V138.5H326.24ZM343.481 138.948C342.35 138.948 341.337 138.756 340.441 138.372C339.545 137.967 338.83 137.391 338.297 136.644C337.785 135.876 337.529 134.948 337.529 133.86C337.529 132.772 337.785 131.865 338.297 131.14C338.83 130.393 339.555 129.839 340.473 129.476C341.411 129.092 342.478 128.9 343.673 128.9H348.025V128.004C348.025 127.257 347.79 126.649 347.321 126.18C346.851 125.689 346.105 125.444 345.081 125.444C344.078 125.444 343.331 125.679 342.841 126.148C342.35 126.596 342.03 127.183 341.881 127.908L338.169 126.66C338.425 125.849 338.83 125.113 339.385 124.452C339.961 123.769 340.718 123.225 341.657 122.82C342.617 122.393 343.779 122.18 345.145 122.18C347.235 122.18 348.889 122.703 350.105 123.748C351.321 124.793 351.929 126.308 351.929 128.292V134.212C351.929 134.852 352.227 135.172 352.825 135.172H354.105V138.5H351.417C350.627 138.5 349.977 138.308 349.465 137.924C348.953 137.54 348.697 137.028 348.697 136.388V136.356H348.089C348.003 136.612 347.811 136.953 347.513 137.38C347.214 137.785 346.745 138.148 346.105 138.468C345.465 138.788 344.59 138.948 343.481 138.948ZM344.185 135.684C345.315 135.684 346.233 135.375 346.937 134.756C347.662 134.116 348.025 133.273 348.025 132.228V131.908H343.961C343.214 131.908 342.627 132.068 342.201 132.388C341.774 132.708 341.561 133.156 341.561 133.732C341.561 134.308 341.785 134.777 342.233 135.14C342.681 135.503 343.331 135.684 344.185 135.684ZM365.178 138.5V122.628H369.146V124.708H369.722C369.978 124.153 370.458 123.631 371.161 123.14C371.866 122.628 372.932 122.372 374.362 122.372C375.599 122.372 376.676 122.66 377.594 123.236C378.532 123.791 379.258 124.569 379.77 125.572C380.282 126.553 380.538 127.705 380.538 129.028V138.5H376.506V129.348C376.506 128.153 376.207 127.257 375.61 126.66C375.034 126.063 374.202 125.764 373.114 125.764C371.876 125.764 370.916 126.18 370.234 127.012C369.551 127.823 369.21 128.964 369.21 130.436V138.5H365.178ZM392.448 138.948C390.87 138.948 389.451 138.628 388.192 137.988C386.934 137.348 385.942 136.42 385.216 135.204C384.491 133.988 384.128 132.527 384.128 130.82V130.308C384.128 128.601 384.491 127.14 385.216 125.924C385.942 124.708 386.934 123.78 388.192 123.14C389.451 122.5 390.87 122.18 392.448 122.18C394.027 122.18 395.446 122.5 396.704 123.14C397.963 123.78 398.955 124.708 399.68 125.924C400.406 127.14 400.768 128.601 400.768 130.308V130.82C400.768 132.527 400.406 133.988 399.68 135.204C398.955 136.42 397.963 137.348 396.704 137.988C395.446 138.628 394.027 138.948 392.448 138.948ZM392.448 135.364C393.686 135.364 394.71 134.969 395.52 134.18C396.331 133.369 396.736 132.217 396.736 130.724V130.404C396.736 128.911 396.331 127.769 395.52 126.98C394.731 126.169 393.707 125.764 392.448 125.764C391.211 125.764 390.187 126.169 389.376 126.98C388.566 127.769 388.16 128.911 388.16 130.404V130.724C388.16 132.217 388.566 133.369 389.376 134.18C390.187 134.969 391.211 135.364 392.448 135.364ZM417.543 138.948C416.412 138.948 415.399 138.756 414.503 138.372C413.607 137.967 412.892 137.391 412.359 136.644C411.847 135.876 411.591 134.948 411.591 133.86C411.591 132.772 411.847 131.865 412.359 131.14C412.892 130.393 413.618 129.839 414.535 129.476C415.474 129.092 416.54 128.9 417.735 128.9H422.087V128.004C422.087 127.257 421.852 126.649 421.383 126.18C420.914 125.689 420.167 125.444 419.143 125.444C418.14 125.444 417.394 125.679 416.903 126.148C416.412 126.596 416.092 127.183 415.943 127.908L412.231 126.66C412.487 125.849 412.892 125.113 413.447 124.452C414.023 123.769 414.78 123.225 415.719 122.82C416.679 122.393 417.842 122.18 419.207 122.18C421.298 122.18 422.951 122.703 424.167 123.748C425.383 124.793 425.991 126.308 425.991 128.292V134.212C425.991 134.852 426.29 135.172 426.887 135.172H428.167V138.5H425.479C424.69 138.5 424.039 138.308 423.527 137.924C423.015 137.54 422.759 137.028 422.759 136.388V136.356H422.151C422.066 136.612 421.874 136.953 421.575 137.38C421.276 137.785 420.807 138.148 420.167 138.468C419.527 138.788 418.652 138.948 417.543 138.948ZM418.247 135.684C419.378 135.684 420.295 135.375 420.999 134.756C421.724 134.116 422.087 133.273 422.087 132.228V131.908H418.023C417.276 131.908 416.69 132.068 416.263 132.388C415.836 132.708 415.623 133.156 415.623 133.732C415.623 134.308 415.847 134.777 416.295 135.14C416.743 135.503 417.394 135.684 418.247 135.684ZM431.115 138.5V122.628H435.083V124.42H435.659C435.894 123.78 436.278 123.311 436.811 123.012C437.366 122.713 438.006 122.564 438.731 122.564H440.651V126.148H438.667C437.643 126.148 436.8 126.425 436.139 126.98C435.478 127.513 435.147 128.345 435.147 129.476V138.5H431.115ZM459.48 138.948C457.901 138.948 456.482 138.628 455.224 137.988C453.965 137.348 452.973 136.42 452.248 135.204C451.522 133.988 451.16 132.527 451.16 130.82V130.308C451.16 128.601 451.522 127.14 452.248 125.924C452.973 124.708 453.965 123.78 455.224 123.14C456.482 122.5 457.901 122.18 459.48 122.18C461.058 122.18 462.477 122.5 463.736 123.14C464.994 123.78 465.986 124.708 466.712 125.924C467.437 127.14 467.8 128.601 467.8 130.308V130.82C467.8 132.527 467.437 133.988 466.712 135.204C465.986 136.42 464.994 137.348 463.736 137.988C462.477 138.628 461.058 138.948 459.48 138.948ZM459.48 135.364C460.717 135.364 461.741 134.969 462.552 134.18C463.362 133.369 463.768 132.217 463.768 130.724V130.404C463.768 128.911 463.362 127.769 462.552 126.98C461.762 126.169 460.738 125.764 459.48 125.764C458.242 125.764 457.218 126.169 456.408 126.98C455.597 127.769 455.192 128.911 455.192 130.404V130.724C455.192 132.217 455.597 133.369 456.408 134.18C457.218 134.969 458.242 135.364 459.48 135.364Z" fill="#27293E"/>
<rect x="75.5" y="151.5" width="445" height="73" rx="36.5" fill="#F4FA8D"/>
<path d="M109.74 199.5V183.628H113.708V185.708H114.284C114.54 185.153 115.02 184.631 115.724 184.14C116.428 183.628 117.495 183.372 118.924 183.372C120.161 183.372 121.239 183.66 122.156 184.236C123.095 184.791 123.82 185.569 124.332 186.572C124.844 187.553 125.1 188.705 125.1 190.028V199.5H121.068V190.348C121.068 189.153 120.769 188.257 120.172 187.66C119.596 187.063 118.764 186.764 117.676 186.764C116.439 186.764 115.479 187.18 114.796 188.012C114.113 188.823 113.772 189.964 113.772 191.436V199.5H109.74ZM137.011 199.948C135.432 199.948 134.013 199.628 132.755 198.988C131.496 198.348 130.504 197.42 129.779 196.204C129.053 194.988 128.691 193.527 128.691 191.82V191.308C128.691 189.601 129.053 188.14 129.779 186.924C130.504 185.708 131.496 184.78 132.755 184.14C134.013 183.5 135.432 183.18 137.011 183.18C138.589 183.18 140.008 183.5 141.267 184.14C142.525 184.78 143.517 185.708 144.243 186.924C144.968 188.14 145.331 189.601 145.331 191.308V191.82C145.331 193.527 144.968 194.988 144.243 196.204C143.517 197.42 142.525 198.348 141.267 198.988C140.008 199.628 138.589 199.948 137.011 199.948ZM137.011 196.364C138.248 196.364 139.272 195.969 140.083 195.18C140.893 194.369 141.299 193.217 141.299 191.724V191.404C141.299 189.911 140.893 188.769 140.083 187.98C139.293 187.169 138.269 186.764 137.011 186.764C135.773 186.764 134.749 187.169 133.939 187.98C133.128 188.769 132.723 189.911 132.723 191.404V191.724C132.723 193.217 133.128 194.369 133.939 195.18C134.749 195.969 135.773 196.364 137.011 196.364ZM151.912 199.5L146.856 183.628H151.144L154.824 196.556H155.4L159.08 183.628H163.368L158.312 199.5H151.912ZM173.198 199.948C171.62 199.948 170.201 199.628 168.942 198.988C167.684 198.348 166.692 197.42 165.966 196.204C165.241 194.988 164.878 193.527 164.878 191.82V191.308C164.878 189.601 165.241 188.14 165.966 186.924C166.692 185.708 167.684 184.78 168.942 184.14C170.201 183.5 171.62 183.18 173.198 183.18C174.777 183.18 176.196 183.5 177.454 184.14C178.713 184.78 179.705 185.708 180.43 186.924C181.156 188.14 181.518 189.601 181.518 191.308V191.82C181.518 193.527 181.156 194.988 180.43 196.204C179.705 197.42 178.713 198.348 177.454 198.988C176.196 199.628 174.777 199.948 173.198 199.948ZM173.198 196.364C174.436 196.364 175.46 195.969 176.27 195.18C177.081 194.369 177.486 193.217 177.486 191.724V191.404C177.486 189.911 177.081 188.769 176.27 187.98C175.481 187.169 174.457 186.764 173.198 186.764C171.961 186.764 170.937 187.169 170.126 187.98C169.316 188.769 168.91 189.911 168.91 191.404V191.724C168.91 193.217 169.316 194.369 170.126 195.18C170.937 195.969 171.961 196.364 173.198 196.364ZM201.749 199.948C198.976 199.948 196.778 199.18 195.157 197.644C193.536 196.087 192.725 193.868 192.725 190.988V185.612C192.725 182.732 193.536 180.524 195.157 178.988C196.778 177.431 198.976 176.652 201.749 176.652C204.501 176.652 206.624 177.409 208.117 178.924C209.632 180.417 210.389 182.476 210.389 185.1V185.292H206.229V184.972C206.229 183.649 205.856 182.561 205.109 181.708C204.384 180.855 203.264 180.428 201.749 180.428C200.256 180.428 199.082 180.887 198.229 181.804C197.376 182.721 196.949 183.969 196.949 185.548V191.052C196.949 192.609 197.376 193.857 198.229 194.796C199.082 195.713 200.256 196.172 201.749 196.172C203.264 196.172 204.384 195.745 205.109 194.892C205.856 194.017 206.229 192.929 206.229 191.628V191.052H210.389V191.5C210.389 194.124 209.632 196.193 208.117 197.708C206.624 199.201 204.501 199.948 201.749 199.948ZM213.959 199.5V177.1H217.991V199.5H213.959ZM222.459 199.5V183.628H226.491V199.5H222.459ZM222.043 181.836L224.411 177.1H228.955L225.563 181.836H222.043ZM230.959 199.5V183.628H234.927V185.708H235.503C235.759 185.153 236.239 184.631 236.943 184.14C237.647 183.628 238.713 183.372 240.143 183.372C241.38 183.372 242.457 183.66 243.375 184.236C244.313 184.791 245.039 185.569 245.551 186.572C246.063 187.553 246.319 188.705 246.319 190.028V199.5H242.287V190.348C242.287 189.153 241.988 188.257 241.391 187.66C240.815 187.063 239.983 186.764 238.895 186.764C237.657 186.764 236.697 187.18 236.015 188.012C235.332 188.823 234.991 189.964 234.991 191.436V199.5H230.959ZM250.678 199.5V183.628H254.71V199.5H250.678ZM252.694 181.772C251.968 181.772 251.35 181.537 250.838 181.068C250.347 180.599 250.102 179.98 250.102 179.212C250.102 178.444 250.347 177.825 250.838 177.356C251.35 176.887 251.968 176.652 252.694 176.652C253.44 176.652 254.059 176.887 254.55 177.356C255.04 177.825 255.286 178.444 255.286 179.212C255.286 179.98 255.04 180.599 254.55 181.068C254.059 181.537 253.44 181.772 252.694 181.772ZM266.634 199.948C265.098 199.948 263.7 199.628 262.442 198.988C261.204 198.348 260.223 197.42 259.498 196.204C258.772 194.988 258.41 193.516 258.41 191.788V191.34C258.41 189.612 258.772 188.14 259.498 186.924C260.223 185.708 261.204 184.78 262.442 184.14C263.7 183.5 265.098 183.18 266.634 183.18C268.148 183.18 269.45 183.447 270.538 183.98C271.626 184.513 272.5 185.249 273.162 186.188C273.844 187.105 274.292 188.151 274.506 189.324L270.602 190.156C270.516 189.516 270.324 188.94 270.026 188.428C269.727 187.916 269.3 187.511 268.746 187.212C268.212 186.913 267.54 186.764 266.73 186.764C265.919 186.764 265.183 186.945 264.522 187.308C263.882 187.649 263.37 188.172 262.986 188.876C262.623 189.559 262.442 190.401 262.442 191.404V191.724C262.442 192.727 262.623 193.58 262.986 194.284C263.37 194.967 263.882 195.489 264.522 195.852C265.183 196.193 265.919 196.364 266.73 196.364C267.946 196.364 268.863 196.055 269.482 195.436C270.122 194.796 270.527 193.964 270.698 192.94L274.602 193.868C274.324 194.999 273.844 196.033 273.162 196.972C272.5 197.889 271.626 198.615 270.538 199.148C269.45 199.681 268.148 199.948 266.634 199.948ZM282.856 199.948C281.725 199.948 280.712 199.756 279.816 199.372C278.92 198.967 278.205 198.391 277.672 197.644C277.16 196.876 276.904 195.948 276.904 194.86C276.904 193.772 277.16 192.865 277.672 192.14C278.205 191.393 278.93 190.839 279.848 190.476C280.786 190.092 281.853 189.9 283.048 189.9H287.4V189.004C287.4 188.257 287.165 187.649 286.696 187.18C286.226 186.689 285.48 186.444 284.456 186.444C283.453 186.444 282.706 186.679 282.216 187.148C281.725 187.596 281.405 188.183 281.256 188.908L277.544 187.66C277.8 186.849 278.205 186.113 278.76 185.452C279.336 184.769 280.093 184.225 281.032 183.82C281.992 183.393 283.154 183.18 284.52 183.18C286.61 183.18 288.264 183.703 289.48 184.748C290.696 185.793 291.304 187.308 291.304 189.292V195.212C291.304 195.852 291.602 196.172 292.2 196.172H293.48V199.5H290.792C290.002 199.5 289.352 199.308 288.84 198.924C288.328 198.54 288.072 198.028 288.072 197.388V197.356H287.464C287.378 197.612 287.186 197.953 286.888 198.38C286.589 198.785 286.12 199.148 285.48 199.468C284.84 199.788 283.965 199.948 282.856 199.948ZM283.56 196.684C284.69 196.684 285.608 196.375 286.312 195.756C287.037 195.116 287.4 194.273 287.4 193.228V192.908H283.336C282.589 192.908 282.002 193.068 281.576 193.388C281.149 193.708 280.936 194.156 280.936 194.732C280.936 195.308 281.16 195.777 281.608 196.14C282.056 196.503 282.706 196.684 283.56 196.684ZM304.553 199.5V183.628H308.521V185.708H309.097C309.353 185.153 309.833 184.631 310.536 184.14C311.241 183.628 312.307 183.372 313.737 183.372C314.974 183.372 316.051 183.66 316.969 184.236C317.907 184.791 318.633 185.569 319.145 186.572C319.657 187.553 319.913 188.705 319.913 190.028V199.5H315.881V190.348C315.881 189.153 315.582 188.257 314.985 187.66C314.409 187.063 313.577 186.764 312.489 186.764C311.251 186.764 310.291 187.18 309.609 188.012C308.926 188.823 308.585 189.964 308.585 191.436V199.5H304.553ZM329.199 199.948C328.069 199.948 327.055 199.756 326.159 199.372C325.263 198.967 324.549 198.391 324.015 197.644C323.503 196.876 323.247 195.948 323.247 194.86C323.247 193.772 323.503 192.865 324.015 192.14C324.549 191.393 325.274 190.839 326.191 190.476C327.13 190.092 328.197 189.9 329.391 189.9H333.743V189.004C333.743 188.257 333.509 187.649 333.039 187.18C332.57 186.689 331.823 186.444 330.799 186.444C329.797 186.444 329.05 186.679 328.559 187.148C328.069 187.596 327.749 188.183 327.599 188.908L323.887 187.66C324.143 186.849 324.549 186.113 325.103 185.452C325.679 184.769 326.437 184.225 327.375 183.82C328.335 183.393 329.498 183.18 330.863 183.18C332.954 183.18 334.607 183.703 335.823 184.748C337.039 185.793 337.647 187.308 337.647 189.292V195.212C337.647 195.852 337.946 196.172 338.543 196.172H339.823V199.5H337.135C336.346 199.5 335.695 199.308 335.183 198.924C334.671 198.54 334.415 198.028 334.415 197.388V197.356H333.807C333.722 197.612 333.53 197.953 333.231 198.38C332.933 198.785 332.463 199.148 331.823 199.468C331.183 199.788 330.309 199.948 329.199 199.948ZM329.903 196.684C331.034 196.684 331.951 196.375 332.655 195.756C333.381 195.116 333.743 194.273 333.743 193.228V192.908H329.679C328.933 192.908 328.346 193.068 327.919 193.388C327.493 193.708 327.279 194.156 327.279 194.732C327.279 195.308 327.503 195.777 327.951 196.14C328.399 196.503 329.05 196.684 329.903 196.684ZM349.238 199.948C347.169 199.948 345.473 199.5 344.15 198.604C342.828 197.708 342.028 196.428 341.75 194.764L345.462 193.804C345.612 194.551 345.857 195.137 346.198 195.564C346.561 195.991 346.998 196.3 347.51 196.492C348.044 196.663 348.62 196.748 349.238 196.748C350.177 196.748 350.87 196.588 351.318 196.268C351.766 195.927 351.99 195.511 351.99 195.02C351.99 194.529 351.777 194.156 351.35 193.9C350.924 193.623 350.241 193.399 349.302 193.228L348.406 193.068C347.297 192.855 346.284 192.567 345.366 192.204C344.449 191.82 343.713 191.297 343.158 190.636C342.604 189.975 342.326 189.121 342.326 188.076C342.326 186.497 342.902 185.292 344.054 184.46C345.206 183.607 346.721 183.18 348.598 183.18C350.369 183.18 351.841 183.575 353.014 184.364C354.188 185.153 354.956 186.188 355.318 187.468L351.574 188.62C351.404 187.809 351.052 187.233 350.518 186.892C350.006 186.551 349.366 186.38 348.598 186.38C347.83 186.38 347.244 186.519 346.838 186.796C346.433 187.052 346.23 187.415 346.23 187.884C346.23 188.396 346.444 188.78 346.87 189.036C347.297 189.271 347.873 189.452 348.598 189.58L349.494 189.74C350.689 189.953 351.766 190.241 352.726 190.604C353.708 190.945 354.476 191.447 355.03 192.108C355.606 192.748 355.894 193.623 355.894 194.732C355.894 196.396 355.286 197.687 354.07 198.604C352.876 199.5 351.265 199.948 349.238 199.948ZM367.424 199.5V177.1H375.457L379.905 196.62H380.481V177.1H384.641V199.5H376.609L372.161 179.98H371.585V199.5H367.424ZM395.038 199.756C393.801 199.756 392.713 199.479 391.774 198.924C390.857 198.348 390.142 197.559 389.63 196.556C389.118 195.553 388.862 194.401 388.862 193.1V183.628H392.894V192.78C392.894 193.975 393.182 194.871 393.758 195.468C394.355 196.065 395.198 196.364 396.286 196.364C397.523 196.364 398.483 195.959 399.166 195.148C399.849 194.316 400.19 193.164 400.19 191.692V183.628H404.222V199.5H400.254V197.42H399.678C399.422 197.953 398.942 198.476 398.238 198.988C397.534 199.5 396.467 199.756 395.038 199.756ZM412.037 199.5L406.981 183.628H411.269L414.949 196.556H415.525L419.205 183.628H423.493L418.437 199.5H412.037ZM433.003 199.948C431.425 199.948 430.027 199.617 428.811 198.956C427.617 198.273 426.678 197.324 425.995 196.108C425.334 194.871 425.003 193.42 425.003 191.756V191.372C425.003 189.708 425.334 188.268 425.995 187.052C426.657 185.815 427.585 184.865 428.779 184.204C429.974 183.521 431.361 183.18 432.939 183.18C434.497 183.18 435.851 183.532 437.003 184.236C438.155 184.919 439.051 185.879 439.691 187.116C440.331 188.332 440.651 189.751 440.651 191.372V192.748H429.099C429.142 193.836 429.547 194.721 430.315 195.404C431.083 196.087 432.022 196.428 433.131 196.428C434.262 196.428 435.094 196.183 435.627 195.692C436.161 195.201 436.566 194.657 436.843 194.06L440.139 195.788C439.841 196.343 439.403 196.951 438.827 197.612C438.273 198.252 437.526 198.807 436.587 199.276C435.649 199.724 434.454 199.948 433.003 199.948ZM429.131 189.74H436.555C436.47 188.823 436.097 188.087 435.435 187.532C434.795 186.977 433.953 186.7 432.907 186.7C431.819 186.7 430.955 186.977 430.315 187.532C429.675 188.087 429.281 188.823 429.131 189.74ZM444.24 199.5V183.628H448.208V185.708H448.784C449.04 185.153 449.52 184.631 450.224 184.14C450.928 183.628 451.995 183.372 453.424 183.372C454.661 183.372 455.739 183.66 456.656 184.236C457.595 184.791 458.32 185.569 458.832 186.572C459.344 187.553 459.6 188.705 459.6 190.028V199.5H455.568V190.348C455.568 189.153 455.269 188.257 454.672 187.66C454.096 187.063 453.264 186.764 452.176 186.764C450.939 186.764 449.979 187.18 449.296 188.012C448.613 188.823 448.272 189.964 448.272 191.436V199.5H444.24ZM470.551 199.948C468.481 199.948 466.785 199.5 465.463 198.604C464.14 197.708 463.34 196.428 463.063 194.764L466.775 193.804C466.924 194.551 467.169 195.137 467.511 195.564C467.873 195.991 468.311 196.3 468.823 196.492C469.356 196.663 469.932 196.748 470.551 196.748C471.489 196.748 472.183 196.588 472.631 196.268C473.079 195.927 473.303 195.511 473.303 195.02C473.303 194.529 473.089 194.156 472.663 193.9C472.236 193.623 471.553 193.399 470.615 193.228L469.719 193.068C468.609 192.855 467.596 192.567 466.679 192.204C465.761 191.82 465.025 191.297 464.471 190.636C463.916 189.975 463.639 189.121 463.639 188.076C463.639 186.497 464.215 185.292 465.367 184.46C466.519 183.607 468.033 183.18 469.911 183.18C471.681 183.18 473.153 183.575 474.327 184.364C475.5 185.153 476.268 186.188 476.631 187.468L472.887 188.62C472.716 187.809 472.364 187.233 471.831 186.892C471.319 186.551 470.679 186.38 469.911 186.38C469.143 186.38 468.556 186.519 468.151 186.796C467.745 187.052 467.543 187.415 467.543 187.884C467.543 188.396 467.756 188.78 468.183 189.036C468.609 189.271 469.185 189.452 469.911 189.58L470.807 189.74C472.001 189.953 473.079 190.241 474.039 190.604C475.02 190.945 475.788 191.447 476.343 192.108C476.919 192.748 477.207 193.623 477.207 194.732C477.207 196.396 476.599 197.687 475.383 198.604C474.188 199.5 472.577 199.948 470.551 199.948ZM481.22 192.14V177.1H485.316V192.14H481.22ZM483.268 199.948C482.415 199.948 481.689 199.671 481.092 199.116C480.516 198.54 480.228 197.804 480.228 196.908C480.228 196.012 480.516 195.287 481.092 194.732C481.689 194.156 482.415 193.868 483.268 193.868C484.143 193.868 484.868 194.156 485.444 194.732C486.02 195.287 486.308 196.012 486.308 196.908C486.308 197.804 486.02 198.54 485.444 199.116C484.868 199.671 484.143 199.948 483.268 199.948Z" fill="#27293E"/>
<path d="M134.575 310.175C134.575 311.625 134.075 312.833 133.075 313.8C132.092 314.75 130.583 315.225 128.55 315.225H125.2V322.5H122.925V305.075H128.55C130.517 305.075 132.008 305.55 133.025 306.5C134.058 307.45 134.575 308.675 134.575 310.175ZM128.55 313.35C129.817 313.35 130.75 313.075 131.35 312.525C131.95 311.975 132.25 311.192 132.25 310.175C132.25 308.025 131.017 306.95 128.55 306.95H125.2V313.35H128.55ZM136.553 315.6C136.553 314.2 136.836 312.975 137.403 311.925C137.969 310.858 138.744 310.033 139.728 309.45C140.728 308.867 141.836 308.575 143.053 308.575C144.253 308.575 145.294 308.833 146.178 309.35C147.061 309.867 147.719 310.517 148.153 311.3V308.8H150.453V322.5H148.153V319.95C147.703 320.75 147.028 321.417 146.128 321.95C145.244 322.467 144.211 322.725 143.028 322.725C141.811 322.725 140.711 322.425 139.728 321.825C138.744 321.225 137.969 320.383 137.403 319.3C136.836 318.217 136.553 316.983 136.553 315.6ZM148.153 315.625C148.153 314.592 147.944 313.692 147.528 312.925C147.111 312.158 146.544 311.575 145.828 311.175C145.128 310.758 144.353 310.55 143.503 310.55C142.653 310.55 141.878 310.75 141.178 311.15C140.478 311.55 139.919 312.133 139.503 312.9C139.086 313.667 138.878 314.567 138.878 315.6C138.878 316.65 139.086 317.567 139.503 318.35C139.919 319.117 140.478 319.708 141.178 320.125C141.878 320.525 142.653 320.725 143.503 320.725C144.353 320.725 145.128 320.525 145.828 320.125C146.544 319.708 147.111 319.117 147.528 318.35C147.944 317.567 148.153 316.658 148.153 315.625ZM156.572 311.025C156.972 310.242 157.539 309.633 158.272 309.2C159.022 308.767 159.93 308.55 160.997 308.55V310.9H160.397C157.847 310.9 156.572 312.283 156.572 315.05V322.5H154.297V308.8H156.572V311.025ZM162.773 315.6C162.773 314.2 163.057 312.975 163.623 311.925C164.19 310.858 164.965 310.033 165.948 309.45C166.948 308.867 168.057 308.575 169.273 308.575C170.473 308.575 171.515 308.833 172.398 309.35C173.282 309.867 173.94 310.517 174.373 311.3V308.8H176.673V322.5H174.373V319.95C173.923 320.75 173.248 321.417 172.348 321.95C171.465 322.467 170.432 322.725 169.248 322.725C168.032 322.725 166.932 322.425 165.948 321.825C164.965 321.225 164.19 320.383 163.623 319.3C163.057 318.217 162.773 316.983 162.773 315.6ZM174.373 315.625C174.373 314.592 174.165 313.692 173.748 312.925C173.332 312.158 172.765 311.575 172.048 311.175C171.348 310.758 170.573 310.55 169.723 310.55C168.873 310.55 168.098 310.75 167.398 311.15C166.698 311.55 166.14 312.133 165.723 312.9C165.307 313.667 165.098 314.567 165.098 315.6C165.098 316.65 165.307 317.567 165.723 318.35C166.14 319.117 166.698 319.708 167.398 320.125C168.098 320.525 168.873 320.725 169.723 320.725C170.573 320.725 171.348 320.525 172.048 320.125C172.765 319.708 173.332 319.117 173.748 318.35C174.165 317.567 174.373 316.658 174.373 315.625ZM186.333 315.6C186.333 314.2 186.616 312.975 187.183 311.925C187.749 310.858 188.524 310.033 189.508 309.45C190.508 308.867 191.616 308.575 192.833 308.575C194.033 308.575 195.074 308.833 195.958 309.35C196.841 309.867 197.499 310.517 197.933 311.3V308.8H200.233V322.5H197.933V319.95C197.483 320.75 196.808 321.417 195.908 321.95C195.024 322.467 193.991 322.725 192.808 322.725C191.591 322.725 190.491 322.425 189.508 321.825C188.524 321.225 187.749 320.383 187.183 319.3C186.616 318.217 186.333 316.983 186.333 315.6ZM197.933 315.625C197.933 314.592 197.724 313.692 197.308 312.925C196.891 312.158 196.324 311.575 195.608 311.175C194.908 310.758 194.133 310.55 193.283 310.55C192.433 310.55 191.658 310.75 190.958 311.15C190.258 311.55 189.699 312.133 189.283 312.9C188.866 313.667 188.658 314.567 188.658 315.6C188.658 316.65 188.866 317.567 189.283 318.35C189.699 319.117 190.258 319.708 190.958 320.125C191.658 320.525 192.433 320.725 193.283 320.725C194.133 320.725 194.908 320.525 195.608 320.125C196.324 319.708 196.891 319.117 197.308 318.35C197.724 317.567 197.933 316.658 197.933 315.625ZM227.217 308.55C228.284 308.55 229.234 308.775 230.067 309.225C230.901 309.658 231.559 310.317 232.042 311.2C232.526 312.083 232.767 313.158 232.767 314.425V322.5H230.517V314.75C230.517 313.383 230.176 312.342 229.492 311.625C228.826 310.892 227.917 310.525 226.767 310.525C225.584 310.525 224.642 310.908 223.942 311.675C223.242 312.425 222.892 313.517 222.892 314.95V322.5H220.642V314.75C220.642 313.383 220.301 312.342 219.617 311.625C218.951 310.892 218.042 310.525 216.892 310.525C215.709 310.525 214.767 310.908 214.067 311.675C213.367 312.425 213.017 313.517 213.017 314.95V322.5H210.742V308.8H213.017V310.775C213.467 310.058 214.067 309.508 214.817 309.125C215.584 308.742 216.426 308.55 217.342 308.55C218.492 308.55 219.509 308.808 220.392 309.325C221.276 309.842 221.934 310.6 222.367 311.6C222.751 310.633 223.384 309.883 224.267 309.35C225.151 308.817 226.134 308.55 227.217 308.55ZM248.649 308.8V322.5H246.374V320.475C245.941 321.175 245.333 321.725 244.549 322.125C243.783 322.508 242.933 322.7 241.999 322.7C240.933 322.7 239.974 322.483 239.124 322.05C238.274 321.6 237.599 320.933 237.099 320.05C236.616 319.167 236.374 318.092 236.374 316.825V308.8H238.624V316.525C238.624 317.875 238.966 318.917 239.649 319.65C240.333 320.367 241.266 320.725 242.449 320.725C243.666 320.725 244.624 320.35 245.324 319.6C246.024 318.85 246.374 317.758 246.374 316.325V308.8H248.649ZM251.64 315.6C251.64 314.2 251.924 312.975 252.49 311.925C253.057 310.858 253.832 310.033 254.815 309.45C255.815 308.867 256.932 308.575 258.165 308.575C259.232 308.575 260.224 308.825 261.14 309.325C262.057 309.808 262.757 310.45 263.24 311.25V304H265.54V322.5H263.24V319.925C262.79 320.742 262.124 321.417 261.24 321.95C260.357 322.467 259.324 322.725 258.14 322.725C256.924 322.725 255.815 322.425 254.815 321.825C253.832 321.225 253.057 320.383 252.49 319.3C251.924 318.217 251.64 316.983 251.64 315.6ZM263.24 315.625C263.24 314.592 263.032 313.692 262.615 312.925C262.199 312.158 261.632 311.575 260.915 311.175C260.215 310.758 259.44 310.55 258.59 310.55C257.74 310.55 256.965 310.75 256.265 311.15C255.565 311.55 255.007 312.133 254.59 312.9C254.174 313.667 253.965 314.567 253.965 315.6C253.965 316.65 254.174 317.567 254.59 318.35C255.007 319.117 255.565 319.708 256.265 320.125C256.965 320.525 257.74 320.725 258.59 320.725C259.44 320.725 260.215 320.525 260.915 320.125C261.632 319.708 262.199 319.117 262.615 318.35C263.032 317.567 263.24 316.658 263.24 315.625ZM268.535 315.6C268.535 314.2 268.818 312.975 269.385 311.925C269.952 310.858 270.727 310.033 271.71 309.45C272.71 308.867 273.818 308.575 275.035 308.575C276.235 308.575 277.277 308.833 278.16 309.35C279.043 309.867 279.702 310.517 280.135 311.3V308.8H282.435V322.5H280.135V319.95C279.685 320.75 279.01 321.417 278.11 321.95C277.227 322.467 276.193 322.725 275.01 322.725C273.793 322.725 272.693 322.425 271.71 321.825C270.727 321.225 269.952 320.383 269.385 319.3C268.818 318.217 268.535 316.983 268.535 315.6ZM280.135 315.625C280.135 314.592 279.927 313.692 279.51 312.925C279.093 312.158 278.527 311.575 277.81 311.175C277.11 310.758 276.335 310.55 275.485 310.55C274.635 310.55 273.86 310.75 273.16 311.15C272.46 311.55 271.902 312.133 271.485 312.9C271.068 313.667 270.86 314.567 270.86 315.6C270.86 316.65 271.068 317.567 271.485 318.35C271.902 319.117 272.46 319.708 273.16 320.125C273.86 320.525 274.635 320.725 275.485 320.725C276.335 320.725 277.11 320.525 277.81 320.125C278.527 319.708 279.093 319.117 279.51 318.35C279.927 317.567 280.135 316.658 280.135 315.625ZM292.954 308.55C294.621 308.55 295.971 309.058 297.004 310.075C298.038 311.075 298.554 312.525 298.554 314.425V322.5H296.304V314.75C296.304 313.383 295.963 312.342 295.279 311.625C294.596 310.892 293.663 310.525 292.479 310.525C291.279 310.525 290.321 310.9 289.604 311.65C288.904 312.4 288.554 313.492 288.554 314.925V322.5H286.279V308.8H288.554V310.75C289.004 310.05 289.613 309.508 290.379 309.125C291.163 308.742 292.021 308.55 292.954 308.55ZM308.096 320.8C309.096 320.8 309.929 320.567 310.596 320.1C311.262 319.633 311.721 318.967 311.971 318.1H314.421C314.087 319.4 313.429 320.467 312.446 321.3C311.479 322.117 310.262 322.583 308.796 322.7V323.95C309.779 323.933 310.562 324.142 311.146 324.575C311.729 325.008 312.021 325.625 312.021 326.425C312.021 327.208 311.737 327.833 311.171 328.3C310.604 328.767 309.871 329 308.971 329H306.096V327.525H308.521C309.071 327.525 309.471 327.442 309.721 327.275C309.987 327.108 310.121 326.825 310.121 326.425C310.121 326.042 309.987 325.767 309.721 325.6C309.471 325.433 309.071 325.35 308.521 325.35H307.271V322.675C306.121 322.558 305.104 322.2 304.221 321.6C303.337 320.983 302.646 320.167 302.146 319.15C301.662 318.117 301.421 316.942 301.421 315.625C301.421 314.208 301.704 312.975 302.271 311.925C302.837 310.858 303.621 310.033 304.621 309.45C305.637 308.867 306.796 308.575 308.096 308.575C309.779 308.575 311.162 308.983 312.246 309.8C313.346 310.617 314.071 311.75 314.421 313.2H311.971C311.737 312.367 311.279 311.708 310.596 311.225C309.929 310.742 309.096 310.5 308.096 310.5C306.796 310.5 305.746 310.95 304.946 311.85C304.146 312.733 303.746 313.992 303.746 315.625C303.746 317.275 304.146 318.55 304.946 319.45C305.746 320.35 306.796 320.8 308.096 320.8ZM316.606 315.6C316.606 314.2 316.89 312.975 317.456 311.925C318.023 310.858 318.798 310.033 319.781 309.45C320.781 308.867 321.89 308.575 323.106 308.575C324.306 308.575 325.348 308.833 326.231 309.35C327.115 309.867 327.773 310.517 328.206 311.3V308.8H330.506V322.5H328.206V319.95C327.756 320.75 327.081 321.417 326.181 321.95C325.298 322.467 324.265 322.725 323.081 322.725C321.865 322.725 320.765 322.425 319.781 321.825C318.798 321.225 318.023 320.383 317.456 319.3C316.89 318.217 316.606 316.983 316.606 315.6ZM328.206 315.625C328.206 314.592 327.998 313.692 327.581 312.925C327.165 312.158 326.598 311.575 325.881 311.175C325.181 310.758 324.406 310.55 323.556 310.55C322.706 310.55 321.931 310.75 321.231 311.15C320.531 311.55 319.973 312.133 319.556 312.9C319.14 313.667 318.931 314.567 318.931 315.6C318.931 316.65 319.14 317.567 319.556 318.35C319.973 319.117 320.531 319.708 321.231 320.125C321.931 320.525 322.706 320.725 323.556 320.725C324.406 320.725 325.181 320.525 325.881 320.125C326.598 319.708 327.165 319.117 327.581 318.35C327.998 317.567 328.206 316.658 328.206 315.625ZM336.701 319.35L333.901 326.075H332.376L334.201 319.35H336.701ZM351.947 322.725C350.664 322.725 349.497 322.433 348.447 321.85C347.414 321.267 346.597 320.442 345.997 319.375C345.414 318.292 345.122 317.042 345.122 315.625C345.122 314.225 345.422 312.992 346.022 311.925C346.639 310.842 347.472 310.017 348.522 309.45C349.572 308.867 350.747 308.575 352.047 308.575C353.347 308.575 354.522 308.867 355.572 309.45C356.622 310.017 357.447 310.833 358.047 311.9C358.664 312.967 358.972 314.208 358.972 315.625C358.972 317.042 358.655 318.292 358.022 319.375C357.405 320.442 356.564 321.267 355.497 321.85C354.43 322.433 353.247 322.725 351.947 322.725ZM351.947 320.725C352.764 320.725 353.53 320.533 354.247 320.15C354.964 319.767 355.539 319.192 355.972 318.425C356.422 317.658 356.647 316.725 356.647 315.625C356.647 314.525 356.43 313.592 355.997 312.825C355.564 312.058 354.997 311.492 354.297 311.125C353.597 310.742 352.839 310.55 352.022 310.55C351.189 310.55 350.422 310.742 349.722 311.125C349.039 311.492 348.489 312.058 348.072 312.825C347.655 313.592 347.447 314.525 347.447 315.625C347.447 316.742 347.647 317.683 348.047 318.45C348.464 319.217 349.014 319.792 349.697 320.175C350.38 320.542 351.13 320.725 351.947 320.725ZM373.02 322.725C371.887 322.725 370.87 322.525 369.97 322.125C369.07 321.708 368.353 321.15 367.82 320.45C367.303 319.75 367.02 318.975 366.97 318.125H370.495C370.562 318.658 370.82 319.1 371.27 319.45C371.737 319.8 372.312 319.975 372.995 319.975C373.662 319.975 374.178 319.842 374.545 319.575C374.928 319.308 375.12 318.967 375.12 318.55C375.12 318.1 374.887 317.767 374.42 317.55C373.97 317.317 373.245 317.067 372.245 316.8C371.212 316.55 370.362 316.292 369.695 316.025C369.045 315.758 368.478 315.35 367.995 314.8C367.528 314.25 367.295 313.508 367.295 312.575C367.295 311.808 367.512 311.108 367.945 310.475C368.395 309.842 369.028 309.342 369.845 308.975C370.678 308.608 371.653 308.425 372.77 308.425C374.42 308.425 375.737 308.842 376.72 309.675C377.703 310.492 378.245 311.6 378.345 313H374.995C374.945 312.45 374.712 312.017 374.295 311.7C373.895 311.367 373.353 311.2 372.67 311.2C372.037 311.2 371.545 311.317 371.195 311.55C370.862 311.783 370.695 312.108 370.695 312.525C370.695 312.992 370.928 313.35 371.395 313.6C371.862 313.833 372.587 314.075 373.57 314.325C374.57 314.575 375.395 314.833 376.045 315.1C376.695 315.367 377.253 315.783 377.72 316.35C378.203 316.9 378.453 317.633 378.47 318.55C378.47 319.35 378.245 320.067 377.795 320.7C377.362 321.333 376.728 321.833 375.895 322.2C375.078 322.55 374.12 322.725 373.02 322.725ZM383.118 307C382.501 307 381.985 306.808 381.568 306.425C381.168 306.025 380.968 305.533 380.968 304.95C380.968 304.367 381.168 303.883 381.568 303.5C381.985 303.1 382.501 302.9 383.118 302.9C383.735 302.9 384.243 303.1 384.643 303.5C385.06 303.883 385.268 304.367 385.268 304.95C385.268 305.533 385.06 306.025 384.643 306.425C384.243 306.808 383.735 307 383.118 307ZM384.843 308.65V322.5H381.343V308.65H384.843ZM393.601 322.725C392.468 322.725 391.451 322.525 390.551 322.125C389.651 321.708 388.935 321.15 388.401 320.45C387.885 319.75 387.601 318.975 387.551 318.125H391.076C391.143 318.658 391.401 319.1 391.851 319.45C392.318 319.8 392.893 319.975 393.576 319.975C394.243 319.975 394.76 319.842 395.126 319.575C395.51 319.308 395.701 318.967 395.701 318.55C395.701 318.1 395.468 317.767 395.001 317.55C394.551 317.317 393.826 317.067 392.826 316.8C391.793 316.55 390.943 316.292 390.276 316.025C389.626 315.758 389.06 315.35 388.576 314.8C388.11 314.25 387.876 313.508 387.876 312.575C387.876 311.808 388.093 311.108 388.526 310.475C388.976 309.842 389.61 309.342 390.426 308.975C391.26 308.608 392.235 308.425 393.351 308.425C395.001 308.425 396.318 308.842 397.301 309.675C398.285 310.492 398.826 311.6 398.926 313H395.576C395.526 312.45 395.293 312.017 394.876 311.7C394.476 311.367 393.935 311.2 393.251 311.2C392.618 311.2 392.126 311.317 391.776 311.55C391.443 311.783 391.276 312.108 391.276 312.525C391.276 312.992 391.51 313.35 391.976 313.6C392.443 313.833 393.168 314.075 394.151 314.325C395.151 314.575 395.976 314.833 396.626 315.1C397.276 315.367 397.835 315.783 398.301 316.35C398.785 316.9 399.035 317.633 399.051 318.55C399.051 319.35 398.826 320.067 398.376 320.7C397.943 321.333 397.31 321.833 396.476 322.2C395.66 322.55 394.701 322.725 393.601 322.725ZM405.999 311.525V318.225C405.999 318.692 406.108 319.033 406.324 319.25C406.558 319.45 406.941 319.55 407.474 319.55H409.099V322.5H406.899C403.949 322.5 402.474 321.067 402.474 318.2V311.525H400.824V308.65H402.474V305.225H405.999V308.65H409.099V311.525H405.999ZM424.492 315.275C424.492 315.775 424.458 316.225 424.392 316.625H414.267C414.35 317.625 414.7 318.408 415.317 318.975C415.933 319.542 416.692 319.825 417.592 319.825C418.892 319.825 419.817 319.267 420.367 318.15H424.142C423.742 319.483 422.975 320.583 421.842 321.45C420.708 322.3 419.317 322.725 417.667 322.725C416.333 322.725 415.133 322.433 414.067 321.85C413.017 321.25 412.192 320.408 411.592 319.325C411.008 318.242 410.717 316.992 410.717 315.575C410.717 314.142 411.008 312.883 411.592 311.8C412.175 310.717 412.992 309.883 414.042 309.3C415.092 308.717 416.3 308.425 417.667 308.425C418.983 308.425 420.158 308.708 421.192 309.275C422.242 309.842 423.05 310.65 423.617 311.7C424.2 312.733 424.492 313.925 424.492 315.275ZM420.867 314.275C420.85 313.375 420.525 312.658 419.892 312.125C419.258 311.575 418.483 311.3 417.567 311.3C416.7 311.3 415.967 311.567 415.367 312.1C414.783 312.617 414.425 313.342 414.292 314.275H420.867ZM444.246 308.45C445.946 308.45 447.313 308.975 448.346 310.025C449.396 311.058 449.921 312.508 449.921 314.375V322.5H446.421V314.85C446.421 313.767 446.146 312.942 445.596 312.375C445.046 311.792 444.296 311.5 443.346 311.5C442.396 311.5 441.638 311.792 441.071 312.375C440.521 312.942 440.246 313.767 440.246 314.85V322.5H436.746V314.85C436.746 313.767 436.471 312.942 435.921 312.375C435.371 311.792 434.621 311.5 433.671 311.5C432.705 311.5 431.938 311.792 431.371 312.375C430.821 312.942 430.546 313.767 430.546 314.85V322.5H427.046V308.65H430.546V310.325C430.996 309.742 431.571 309.283 432.271 308.95C432.988 308.617 433.771 308.45 434.621 308.45C435.705 308.45 436.671 308.683 437.521 309.15C438.371 309.6 439.03 310.25 439.496 311.1C439.946 310.3 440.596 309.658 441.446 309.175C442.313 308.692 443.246 308.45 444.246 308.45ZM452.343 315.525C452.343 314.125 452.618 312.883 453.168 311.8C453.734 310.717 454.493 309.883 455.443 309.3C456.409 308.717 457.484 308.425 458.668 308.425C459.701 308.425 460.601 308.633 461.368 309.05C462.151 309.467 462.776 309.992 463.243 310.625V308.65H466.768V322.5H463.243V320.475C462.793 321.125 462.168 321.667 461.368 322.1C460.584 322.517 459.676 322.725 458.643 322.725C457.476 322.725 456.409 322.425 455.443 321.825C454.493 321.225 453.734 320.383 453.168 319.3C452.618 318.2 452.343 316.942 452.343 315.525ZM463.243 315.575C463.243 314.725 463.076 314 462.743 313.4C462.409 312.783 461.959 312.317 461.393 312C460.826 311.667 460.218 311.5 459.568 311.5C458.918 311.5 458.318 311.658 457.768 311.975C457.218 312.292 456.768 312.758 456.418 313.375C456.084 313.975 455.918 314.692 455.918 315.525C455.918 316.358 456.084 317.092 456.418 317.725C456.768 318.342 457.218 318.817 457.768 319.15C458.334 319.483 458.934 319.65 459.568 319.65C460.218 319.65 460.826 319.492 461.393 319.175C461.959 318.842 462.409 318.375 462.743 317.775C463.076 317.158 463.243 316.425 463.243 315.575ZM129.075 361.525H126.65V372.5H123.1V361.525H121.525V358.65H123.1V357.95C123.1 356.25 123.583 355 124.55 354.2C125.517 353.4 126.975 353.025 128.925 353.075V356.025C128.075 356.008 127.483 356.15 127.15 356.45C126.817 356.75 126.65 357.292 126.65 358.075V358.65H129.075V361.525ZM133.118 357C132.501 357 131.985 356.808 131.568 356.425C131.168 356.025 130.968 355.533 130.968 354.95C130.968 354.367 131.168 353.883 131.568 353.5C131.985 353.1 132.501 352.9 133.118 352.9C133.735 352.9 134.243 353.1 134.643 353.5C135.06 353.883 135.268 354.367 135.268 354.95C135.268 355.533 135.06 356.025 134.643 356.425C134.243 356.808 133.735 357 133.118 357ZM134.843 358.65V372.5H131.343V358.65H134.843ZM137.401 365.575C137.401 364.142 137.693 362.892 138.276 361.825C138.86 360.742 139.668 359.908 140.701 359.325C141.735 358.725 142.918 358.425 144.251 358.425C145.968 358.425 147.385 358.858 148.501 359.725C149.635 360.575 150.393 361.775 150.776 363.325H147.001C146.801 362.725 146.46 362.258 145.976 361.925C145.51 361.575 144.926 361.4 144.226 361.4C143.226 361.4 142.435 361.767 141.851 362.5C141.268 363.217 140.976 364.242 140.976 365.575C140.976 366.892 141.268 367.917 141.851 368.65C142.435 369.367 143.226 369.725 144.226 369.725C145.643 369.725 146.568 369.092 147.001 367.825H150.776C150.393 369.325 149.635 370.517 148.501 371.4C147.368 372.283 145.951 372.725 144.251 372.725C142.918 372.725 141.735 372.433 140.701 371.85C139.668 371.25 138.86 370.417 138.276 369.35C137.693 368.267 137.401 367.008 137.401 365.575ZM152.44 365.525C152.44 364.125 152.715 362.883 153.265 361.8C153.832 360.717 154.59 359.883 155.54 359.3C156.507 358.717 157.582 358.425 158.765 358.425C159.799 358.425 160.699 358.633 161.465 359.05C162.249 359.467 162.874 359.992 163.34 360.625V358.65H166.865V372.5H163.34V370.475C162.89 371.125 162.265 371.667 161.465 372.1C160.682 372.517 159.774 372.725 158.74 372.725C157.574 372.725 156.507 372.425 155.54 371.825C154.59 371.225 153.832 370.383 153.265 369.3C152.715 368.2 152.44 366.942 152.44 365.525ZM163.34 365.575C163.34 364.725 163.174 364 162.84 363.4C162.507 362.783 162.057 362.317 161.49 362C160.924 361.667 160.315 361.5 159.665 361.5C159.015 361.5 158.415 361.658 157.865 361.975C157.315 362.292 156.865 362.758 156.515 363.375C156.182 363.975 156.015 364.692 156.015 365.525C156.015 366.358 156.182 367.092 156.515 367.725C156.865 368.342 157.315 368.817 157.865 369.15C158.432 369.483 159.032 369.65 159.665 369.65C160.315 369.65 160.924 369.492 161.49 369.175C162.057 368.842 162.507 368.375 162.84 367.775C163.174 367.158 163.34 366.425 163.34 365.575ZM173.784 360.8C174.234 360.067 174.817 359.492 175.534 359.075C176.267 358.658 177.1 358.45 178.034 358.45V362.125H177.109C176.009 362.125 175.175 362.383 174.609 362.9C174.059 363.417 173.784 364.317 173.784 365.6V372.5H170.284V358.65H173.784V360.8ZM179.491 365.525C179.491 364.125 179.766 362.883 180.316 361.8C180.883 360.717 181.641 359.883 182.591 359.3C183.558 358.717 184.633 358.425 185.816 358.425C186.849 358.425 187.749 358.633 188.516 359.05C189.299 359.467 189.924 359.992 190.391 360.625V358.65H193.916V372.5H190.391V370.475C189.941 371.125 189.316 371.667 188.516 372.1C187.733 372.517 186.824 372.725 185.791 372.725C184.624 372.725 183.558 372.425 182.591 371.825C181.641 371.225 180.883 370.383 180.316 369.3C179.766 368.2 179.491 366.942 179.491 365.525ZM190.391 365.575C190.391 364.725 190.224 364 189.891 363.4C189.558 362.783 189.108 362.317 188.541 362C187.974 361.667 187.366 361.5 186.716 361.5C186.066 361.5 185.466 361.658 184.916 361.975C184.366 362.292 183.916 362.758 183.566 363.375C183.233 363.975 183.066 364.692 183.066 365.525C183.066 366.358 183.233 367.092 183.566 367.725C183.916 368.342 184.366 368.817 184.916 369.15C185.483 369.483 186.083 369.65 186.716 369.65C187.366 369.65 187.974 369.492 188.541 369.175C189.108 368.842 189.558 368.375 189.891 367.775C190.224 367.158 190.391 366.425 190.391 365.575ZM189.916 355.05L184.166 357.675V355.175L189.916 352.2V355.05ZM209.641 361.525H207.216V372.5H203.666V361.525H202.091V358.65H203.666V357.95C203.666 356.25 204.15 355 205.116 354.2C206.083 353.4 207.541 353.025 209.491 353.075V356.025C208.641 356.008 208.05 356.15 207.716 356.45C207.383 356.75 207.216 357.292 207.216 358.075V358.65H209.641V361.525ZM218.06 372.725C216.726 372.725 215.526 372.433 214.46 371.85C213.393 371.25 212.551 370.408 211.935 369.325C211.335 368.242 211.035 366.992 211.035 365.575C211.035 364.158 211.343 362.908 211.96 361.825C212.593 360.742 213.451 359.908 214.535 359.325C215.618 358.725 216.826 358.425 218.16 358.425C219.493 358.425 220.701 358.725 221.785 359.325C222.868 359.908 223.718 360.742 224.335 361.825C224.968 362.908 225.285 364.158 225.285 365.575C225.285 366.992 224.96 368.242 224.31 369.325C223.676 370.408 222.81 371.25 221.71 371.85C220.626 372.433 219.41 372.725 218.06 372.725ZM218.06 369.675C218.693 369.675 219.285 369.525 219.835 369.225C220.401 368.908 220.851 368.442 221.185 367.825C221.518 367.208 221.685 366.458 221.685 365.575C221.685 364.258 221.335 363.25 220.635 362.55C219.951 361.833 219.11 361.475 218.11 361.475C217.11 361.475 216.268 361.833 215.585 362.55C214.918 363.25 214.585 364.258 214.585 365.575C214.585 366.892 214.91 367.908 215.56 368.625C216.226 369.325 217.06 369.675 218.06 369.675ZM231.352 360.8C231.802 360.067 232.385 359.492 233.102 359.075C233.835 358.658 234.669 358.45 235.602 358.45V362.125H234.677C233.577 362.125 232.744 362.383 232.177 362.9C231.627 363.417 231.352 364.317 231.352 365.6V372.5H227.852V358.65H231.352V360.8ZM237.059 365.525C237.059 364.125 237.334 362.883 237.884 361.8C238.451 360.717 239.209 359.883 240.159 359.3C241.126 358.717 242.201 358.425 243.384 358.425C244.418 358.425 245.318 358.633 246.084 359.05C246.868 359.467 247.493 359.992 247.959 360.625V358.65H251.484V372.5H247.959V370.475C247.509 371.125 246.884 371.667 246.084 372.1C245.301 372.517 244.393 372.725 243.359 372.725C242.193 372.725 241.126 372.425 240.159 371.825C239.209 371.225 238.451 370.383 237.884 369.3C237.334 368.2 237.059 366.942 237.059 365.525ZM247.959 365.575C247.959 364.725 247.793 364 247.459 363.4C247.126 362.783 246.676 362.317 246.109 362C245.543 361.667 244.934 361.5 244.284 361.5C243.634 361.5 243.034 361.658 242.484 361.975C241.934 362.292 241.484 362.758 241.134 363.375C240.801 363.975 240.634 364.692 240.634 365.525C240.634 366.358 240.801 367.092 241.134 367.725C241.484 368.342 241.934 368.817 242.484 369.15C243.051 369.483 243.651 369.65 244.284 369.65C244.934 369.65 245.543 369.492 246.109 369.175C246.676 368.842 247.126 368.375 247.459 367.775C247.793 367.158 247.959 366.425 247.959 365.575ZM259.96 365.525C259.96 364.125 260.235 362.883 260.785 361.8C261.351 360.717 262.118 359.883 263.085 359.3C264.051 358.717 265.126 358.425 266.31 358.425C267.21 358.425 268.068 358.625 268.885 359.025C269.701 359.408 270.351 359.925 270.835 360.575V354H274.385V372.5H270.835V370.45C270.401 371.133 269.793 371.683 269.01 372.1C268.226 372.517 267.318 372.725 266.285 372.725C265.118 372.725 264.051 372.425 263.085 371.825C262.118 371.225 261.351 370.383 260.785 369.3C260.235 368.2 259.96 366.942 259.96 365.525ZM270.86 365.575C270.86 364.725 270.693 364 270.36 363.4C270.026 362.783 269.576 362.317 269.01 362C268.443 361.667 267.835 361.5 267.185 361.5C266.535 361.5 265.935 361.658 265.385 361.975C264.835 362.292 264.385 362.758 264.035 363.375C263.701 363.975 263.535 364.692 263.535 365.525C263.535 366.358 263.701 367.092 264.035 367.725C264.385 368.342 264.835 368.817 265.385 369.15C265.951 369.483 266.551 369.65 267.185 369.65C267.835 369.65 268.443 369.492 269.01 369.175C269.576 368.842 270.026 368.375 270.36 367.775C270.693 367.158 270.86 366.425 270.86 365.575ZM283.953 372.725C282.62 372.725 281.42 372.433 280.353 371.85C279.286 371.25 278.445 370.408 277.828 369.325C277.228 368.242 276.928 366.992 276.928 365.575C276.928 364.158 277.236 362.908 277.853 361.825C278.486 360.742 279.345 359.908 280.428 359.325C281.511 358.725 282.72 358.425 284.053 358.425C285.386 358.425 286.595 358.725 287.678 359.325C288.761 359.908 289.611 360.742 290.228 361.825C290.861 362.908 291.178 364.158 291.178 365.575C291.178 366.992 290.853 368.242 290.203 369.325C289.57 370.408 288.703 371.25 287.603 371.85C286.52 372.433 285.303 372.725 283.953 372.725ZM283.953 369.675C284.586 369.675 285.178 369.525 285.728 369.225C286.295 368.908 286.745 368.442 287.078 367.825C287.411 367.208 287.578 366.458 287.578 365.575C287.578 364.258 287.228 363.25 286.528 362.55C285.845 361.833 285.003 361.475 284.003 361.475C283.003 361.475 282.161 361.833 281.478 362.55C280.811 363.25 280.478 364.258 280.478 365.575C280.478 366.892 280.803 367.908 281.453 368.625C282.12 369.325 282.953 369.675 283.953 369.675ZM298.803 365.525C298.803 364.125 299.078 362.883 299.628 361.8C300.194 360.717 300.953 359.883 301.903 359.3C302.869 358.717 303.944 358.425 305.128 358.425C306.161 358.425 307.061 358.633 307.828 359.05C308.611 359.467 309.236 359.992 309.703 360.625V358.65H313.228V372.5H309.703V370.475C309.253 371.125 308.628 371.667 307.828 372.1C307.044 372.517 306.136 372.725 305.103 372.725C303.936 372.725 302.869 372.425 301.903 371.825C300.953 371.225 300.194 370.383 299.628 369.3C299.078 368.2 298.803 366.942 298.803 365.525ZM309.703 365.575C309.703 364.725 309.536 364 309.203 363.4C308.869 362.783 308.419 362.317 307.853 362C307.286 361.667 306.678 361.5 306.028 361.5C305.378 361.5 304.778 361.658 304.228 361.975C303.678 362.292 303.228 362.758 302.878 363.375C302.544 363.975 302.378 364.692 302.378 365.525C302.378 366.358 302.544 367.092 302.878 367.725C303.228 368.342 303.678 368.817 304.228 369.15C304.794 369.483 305.394 369.65 306.028 369.65C306.678 369.65 307.286 369.492 307.853 369.175C308.419 368.842 308.869 368.375 309.203 367.775C309.536 367.158 309.703 366.425 309.703 365.575ZM320.146 360.8C320.596 360.067 321.179 359.492 321.896 359.075C322.629 358.658 323.463 358.45 324.396 358.45V362.125H323.471C322.371 362.125 321.538 362.383 320.971 362.9C320.421 363.417 320.146 364.317 320.146 365.6V372.5H316.646V358.65H320.146V360.8ZM328.303 372.675C327.67 372.675 327.145 372.483 326.728 372.1C326.328 371.7 326.128 371.208 326.128 370.625C326.128 370.042 326.328 369.558 326.728 369.175C327.145 368.775 327.67 368.575 328.303 368.575C328.92 368.575 329.428 368.775 329.828 369.175C330.228 369.558 330.428 370.042 330.428 370.625C330.428 371.208 330.228 371.7 329.828 372.1C329.428 372.483 328.92 372.675 328.303 372.675ZM328.303 362.325C327.67 362.325 327.145 362.133 326.728 361.75C326.328 361.35 326.128 360.858 326.128 360.275C326.128 359.692 326.328 359.208 326.728 358.825C327.145 358.425 327.67 358.225 328.303 358.225C328.92 358.225 329.428 358.425 329.828 358.825C330.228 359.208 330.428 359.692 330.428 360.275C330.428 360.858 330.228 361.35 329.828 361.75C329.428 362.133 328.92 362.325 328.303 362.325ZM122.075 415.6C122.075 414.2 122.358 412.975 122.925 411.925C123.492 410.858 124.267 410.033 125.25 409.45C126.25 408.867 127.367 408.575 128.6 408.575C129.667 408.575 130.658 408.825 131.575 409.325C132.492 409.808 133.192 410.45 133.675 411.25V404H135.975V422.5H133.675V419.925C133.225 420.742 132.558 421.417 131.675 421.95C130.792 422.467 129.758 422.725 128.575 422.725C127.358 422.725 126.25 422.425 125.25 421.825C124.267 421.225 123.492 420.383 122.925 419.3C122.358 418.217 122.075 416.983 122.075 415.6ZM133.675 415.625C133.675 414.592 133.467 413.692 133.05 412.925C132.633 412.158 132.067 411.575 131.35 411.175C130.65 410.758 129.875 410.55 129.025 410.55C128.175 410.55 127.4 410.75 126.7 411.15C126 411.55 125.442 412.133 125.025 412.9C124.608 413.667 124.4 414.567 124.4 415.6C124.4 416.65 124.608 417.567 125.025 418.35C125.442 419.117 126 419.708 126.7 420.125C127.4 420.525 128.175 420.725 129.025 420.725C129.875 420.725 130.65 420.525 131.35 420.125C132.067 419.708 132.633 419.117 133.05 418.35C133.467 417.567 133.675 416.658 133.675 415.625ZM145.795 422.725C144.511 422.725 143.345 422.433 142.295 421.85C141.261 421.267 140.445 420.442 139.845 419.375C139.261 418.292 138.97 417.042 138.97 415.625C138.97 414.225 139.27 412.992 139.87 411.925C140.486 410.842 141.32 410.017 142.37 409.45C143.42 408.867 144.595 408.575 145.895 408.575C147.195 408.575 148.37 408.867 149.42 409.45C150.47 410.017 151.295 410.833 151.895 411.9C152.511 412.967 152.82 414.208 152.82 415.625C152.82 417.042 152.503 418.292 151.87 419.375C151.253 420.442 150.411 421.267 149.345 421.85C148.278 422.433 147.095 422.725 145.795 422.725ZM145.795 420.725C146.611 420.725 147.378 420.533 148.095 420.15C148.811 419.767 149.386 419.192 149.82 418.425C150.27 417.658 150.495 416.725 150.495 415.625C150.495 414.525 150.278 413.592 149.845 412.825C149.411 412.058 148.845 411.492 148.145 411.125C147.445 410.742 146.686 410.55 145.87 410.55C145.036 410.55 144.27 410.742 143.57 411.125C142.886 411.492 142.336 412.058 141.92 412.825C141.503 413.592 141.295 414.525 141.295 415.625C141.295 416.742 141.495 417.683 141.895 418.45C142.311 419.217 142.861 419.792 143.545 420.175C144.228 420.542 144.978 420.725 145.795 420.725ZM161.626 415.6C161.626 414.2 161.909 412.975 162.476 411.925C163.042 410.858 163.817 410.033 164.801 409.45C165.801 408.867 166.917 408.575 168.151 408.575C169.217 408.575 170.209 408.825 171.126 409.325C172.042 409.808 172.742 410.45 173.226 411.25V404H175.526V422.5H173.226V419.925C172.776 420.742 172.109 421.417 171.226 421.95C170.342 422.467 169.309 422.725 168.126 422.725C166.909 422.725 165.801 422.425 164.801 421.825C163.817 421.225 163.042 420.383 162.476 419.3C161.909 418.217 161.626 416.983 161.626 415.6ZM173.226 415.625C173.226 414.592 173.017 413.692 172.601 412.925C172.184 412.158 171.617 411.575 170.901 411.175C170.201 410.758 169.426 410.55 168.576 410.55C167.726 410.55 166.951 410.75 166.251 411.15C165.551 411.55 164.992 412.133 164.576 412.9C164.159 413.667 163.951 414.567 163.951 415.6C163.951 416.65 164.159 417.567 164.576 418.35C164.992 419.117 165.551 419.708 166.251 420.125C166.951 420.525 167.726 420.725 168.576 420.725C169.426 420.725 170.201 420.525 170.901 420.125C171.617 419.708 172.184 419.117 172.601 418.35C173.017 417.567 173.226 416.658 173.226 415.625ZM180.545 406.575C180.112 406.575 179.745 406.425 179.445 406.125C179.145 405.825 178.995 405.458 178.995 405.025C178.995 404.592 179.145 404.225 179.445 403.925C179.745 403.625 180.112 403.475 180.545 403.475C180.962 403.475 181.312 403.625 181.595 403.925C181.895 404.225 182.045 404.592 182.045 405.025C182.045 405.458 181.895 405.825 181.595 406.125C181.312 406.425 180.962 406.575 180.545 406.575ZM181.645 408.8V422.5H179.37V408.8H181.645ZM184.673 415.6C184.673 414.2 184.956 412.975 185.523 411.925C186.089 410.858 186.864 410.033 187.848 409.45C188.848 408.867 189.956 408.575 191.173 408.575C192.373 408.575 193.414 408.833 194.298 409.35C195.181 409.867 195.839 410.517 196.273 411.3V408.8H198.573V422.5H196.273V419.95C195.823 420.75 195.148 421.417 194.248 421.95C193.364 422.467 192.331 422.725 191.148 422.725C189.931 422.725 188.831 422.425 187.848 421.825C186.864 421.225 186.089 420.383 185.523 419.3C184.956 418.217 184.673 416.983 184.673 415.6ZM196.273 415.625C196.273 414.592 196.064 413.692 195.648 412.925C195.231 412.158 194.664 411.575 193.948 411.175C193.248 410.758 192.473 410.55 191.623 410.55C190.773 410.55 189.998 410.75 189.298 411.15C188.598 411.55 188.039 412.133 187.623 412.9C187.206 413.667 186.998 414.567 186.998 415.6C186.998 416.65 187.206 417.567 187.623 418.35C188.039 419.117 188.598 419.708 189.298 420.125C189.998 420.525 190.773 420.725 191.623 420.725C192.473 420.725 193.248 420.525 193.948 420.125C194.664 419.708 195.231 419.117 195.648 418.35C196.064 417.567 196.273 416.658 196.273 415.625ZM208.482 413.15C208.482 410.267 208.999 408.008 210.032 406.375C211.082 404.742 212.816 403.925 215.232 403.925C217.649 403.925 219.374 404.742 220.407 406.375C221.457 408.008 221.982 410.267 221.982 413.15C221.982 416.05 221.457 418.325 220.407 419.975C219.374 421.625 217.649 422.45 215.232 422.45C212.816 422.45 211.082 421.625 210.032 419.975C208.999 418.325 208.482 416.05 208.482 413.15ZM218.532 413.15C218.532 411.917 218.449 410.883 218.282 410.05C218.132 409.2 217.816 408.508 217.332 407.975C216.866 407.442 216.166 407.175 215.232 407.175C214.299 407.175 213.591 407.442 213.107 407.975C212.641 408.508 212.324 409.2 212.157 410.05C212.007 410.883 211.932 411.917 211.932 413.15C211.932 414.417 212.007 415.483 212.157 416.35C212.307 417.2 212.624 417.892 213.107 418.425C213.591 418.942 214.299 419.2 215.232 419.2C216.166 419.2 216.874 418.942 217.357 418.425C217.841 417.892 218.157 417.2 218.307 416.35C218.457 415.483 218.532 414.417 218.532 413.15ZM224.219 407.5V404.275H230.244V422.5H226.644V407.5H224.219ZM243.477 398.825L236.727 427.025H233.302L240.052 398.825H243.477ZM245.435 407.5V404.275H251.46V422.5H247.86V407.5H245.435ZM254.493 407.5V404.275H260.518V422.5H256.918V407.5H254.493ZM269.432 415.525C269.432 414.125 269.707 412.883 270.257 411.8C270.824 410.717 271.591 409.883 272.557 409.3C273.524 408.717 274.599 408.425 275.782 408.425C276.682 408.425 277.541 408.625 278.357 409.025C279.174 409.408 279.824 409.925 280.307 410.575V404H283.857V422.5H280.307V420.45C279.874 421.133 279.266 421.683 278.482 422.1C277.699 422.517 276.791 422.725 275.757 422.725C274.591 422.725 273.524 422.425 272.557 421.825C271.591 421.225 270.824 420.383 270.257 419.3C269.707 418.2 269.432 416.942 269.432 415.525ZM280.332 415.575C280.332 414.725 280.166 414 279.832 413.4C279.499 412.783 279.049 412.317 278.482 412C277.916 411.667 277.307 411.5 276.657 411.5C276.007 411.5 275.407 411.658 274.857 411.975C274.307 412.292 273.857 412.758 273.507 413.375C273.174 413.975 273.007 414.692 273.007 415.525C273.007 416.358 273.174 417.092 273.507 417.725C273.857 418.342 274.307 418.817 274.857 419.15C275.424 419.483 276.024 419.65 276.657 419.65C277.307 419.65 277.916 419.492 278.482 419.175C279.049 418.842 279.499 418.375 279.832 417.775C280.166 417.158 280.332 416.425 280.332 415.575ZM286.376 415.525C286.376 414.125 286.651 412.883 287.201 411.8C287.767 410.717 288.526 409.883 289.476 409.3C290.442 408.717 291.517 408.425 292.701 408.425C293.734 408.425 294.634 408.633 295.401 409.05C296.184 409.467 296.809 409.992 297.276 410.625V408.65H300.801V422.5H297.276V420.475C296.826 421.125 296.201 421.667 295.401 422.1C294.617 422.517 293.709 422.725 292.676 422.725C291.509 422.725 290.442 422.425 289.476 421.825C288.526 421.225 287.767 420.383 287.201 419.3C286.651 418.2 286.376 416.942 286.376 415.525ZM297.276 415.575C297.276 414.725 297.109 414 296.776 413.4C296.442 412.783 295.992 412.317 295.426 412C294.859 411.667 294.251 411.5 293.601 411.5C292.951 411.5 292.351 411.658 291.801 411.975C291.251 412.292 290.801 412.758 290.451 413.375C290.117 413.975 289.951 414.692 289.951 415.525C289.951 416.358 290.117 417.092 290.451 417.725C290.801 418.342 291.251 418.817 291.801 419.15C292.367 419.483 292.967 419.65 293.601 419.65C294.251 419.65 294.859 419.492 295.426 419.175C295.992 418.842 296.442 418.375 296.776 417.775C297.109 417.158 297.276 416.425 297.276 415.575ZM309.519 422.725C308.386 422.725 307.369 422.525 306.469 422.125C305.569 421.708 304.852 421.15 304.319 420.45C303.802 419.75 303.519 418.975 303.469 418.125H306.994C307.061 418.658 307.319 419.1 307.769 419.45C308.236 419.8 308.811 419.975 309.494 419.975C310.161 419.975 310.677 419.842 311.044 419.575C311.427 419.308 311.619 418.967 311.619 418.55C311.619 418.1 311.386 417.767 310.919 417.55C310.469 417.317 309.744 417.067 308.744 416.8C307.711 416.55 306.861 416.292 306.194 416.025C305.544 415.758 304.977 415.35 304.494 414.8C304.027 414.25 303.794 413.508 303.794 412.575C303.794 411.808 304.011 411.108 304.444 410.475C304.894 409.842 305.527 409.342 306.344 408.975C307.177 408.608 308.152 408.425 309.269 408.425C310.919 408.425 312.236 408.842 313.219 409.675C314.202 410.492 314.744 411.6 314.844 413H311.494C311.444 412.45 311.211 412.017 310.794 411.7C310.394 411.367 309.852 411.2 309.169 411.2C308.536 411.2 308.044 411.317 307.694 411.55C307.361 411.783 307.194 412.108 307.194 412.525C307.194 412.992 307.427 413.35 307.894 413.6C308.361 413.833 309.086 414.075 310.069 414.325C311.069 414.575 311.894 414.833 312.544 415.1C313.194 415.367 313.752 415.783 314.219 416.35C314.702 416.9 314.952 417.633 314.969 418.55C314.969 419.35 314.744 420.067 314.294 420.7C313.861 421.333 313.227 421.833 312.394 422.2C311.577 422.55 310.619 422.725 309.519 422.725ZM324.499 418.55C326.099 417.217 327.374 416.108 328.324 415.225C329.274 414.325 330.066 413.392 330.699 412.425C331.333 411.458 331.649 410.508 331.649 409.575C331.649 408.725 331.449 408.058 331.049 407.575C330.649 407.092 330.033 406.85 329.199 406.85C328.366 406.85 327.724 407.133 327.274 407.7C326.824 408.25 326.591 409.008 326.574 409.975H323.174C323.241 407.975 323.833 406.458 324.949 405.425C326.083 404.392 327.516 403.875 329.249 403.875C331.149 403.875 332.608 404.383 333.624 405.4C334.641 406.4 335.149 407.725 335.149 409.375C335.149 410.675 334.799 411.917 334.099 413.1C333.399 414.283 332.599 415.317 331.699 416.2C330.799 417.067 329.624 418.117 328.174 419.35H335.549V422.25H323.199V419.65L324.499 418.55ZM337.33 407.5V404.275H343.355V422.5H339.755V407.5H337.33ZM355.012 408.45C356.062 408.45 356.996 408.683 357.812 409.15C358.629 409.6 359.262 410.275 359.712 411.175C360.179 412.058 360.412 413.125 360.412 414.375V422.5H356.912V414.85C356.912 413.75 356.637 412.908 356.087 412.325C355.537 411.725 354.787 411.425 353.837 411.425C352.871 411.425 352.104 411.725 351.537 412.325C350.987 412.908 350.712 413.75 350.712 414.85V422.5H347.212V404H350.712V410.375C351.162 409.775 351.762 409.308 352.512 408.975C353.262 408.625 354.096 408.45 355.012 408.45ZM363.391 409.075C363.474 407.408 364.057 406.125 365.141 405.225C366.241 404.308 367.682 403.85 369.466 403.85C370.682 403.85 371.724 404.067 372.591 404.5C373.457 404.917 374.107 405.492 374.541 406.225C374.991 406.942 375.216 407.758 375.216 408.675C375.216 409.725 374.941 410.617 374.391 411.35C373.857 412.067 373.216 412.55 372.466 412.8V412.9C373.432 413.2 374.182 413.733 374.716 414.5C375.266 415.267 375.541 416.25 375.541 417.45C375.541 418.45 375.307 419.342 374.841 420.125C374.391 420.908 373.716 421.525 372.816 421.975C371.932 422.408 370.866 422.625 369.616 422.625C367.732 422.625 366.199 422.15 365.016 421.2C363.832 420.25 363.207 418.85 363.141 417H366.541C366.574 417.817 366.849 418.475 367.366 418.975C367.899 419.458 368.624 419.7 369.541 419.7C370.391 419.7 371.041 419.467 371.491 419C371.957 418.517 372.191 417.9 372.191 417.15C372.191 416.15 371.874 415.433 371.241 415C370.607 414.567 369.624 414.35 368.291 414.35H367.566V411.475H368.291C370.657 411.475 371.841 410.683 371.841 409.1C371.841 408.383 371.624 407.825 371.191 407.425C370.774 407.025 370.166 406.825 369.366 406.825C368.582 406.825 367.974 407.042 367.541 407.475C367.124 407.892 366.882 408.425 366.816 409.075H363.391ZM378.306 413.15C378.306 410.267 378.823 408.008 379.856 406.375C380.906 404.742 382.64 403.925 385.056 403.925C387.473 403.925 389.198 404.742 390.231 406.375C391.281 408.008 391.806 410.267 391.806 413.15C391.806 416.05 391.281 418.325 390.231 419.975C389.198 421.625 387.473 422.45 385.056 422.45C382.64 422.45 380.906 421.625 379.856 419.975C378.823 418.325 378.306 416.05 378.306 413.15ZM388.356 413.15C388.356 411.917 388.273 410.883 388.106 410.05C387.956 409.2 387.64 408.508 387.156 407.975C386.69 407.442 385.99 407.175 385.056 407.175C384.123 407.175 383.415 407.442 382.931 407.975C382.465 408.508 382.148 409.2 381.981 410.05C381.831 410.883 381.756 411.917 381.756 413.15C381.756 414.417 381.831 415.483 381.981 416.35C382.131 417.2 382.448 417.892 382.931 418.425C383.415 418.942 384.123 419.2 385.056 419.2C385.99 419.2 386.698 418.942 387.181 418.425C387.665 417.892 387.981 417.2 388.131 416.35C388.281 415.483 388.356 414.417 388.356 413.15ZM412.069 408.45C413.769 408.45 415.135 408.975 416.169 410.025C417.219 411.058 417.744 412.508 417.744 414.375V422.5H414.244V414.85C414.244 413.767 413.969 412.942 413.419 412.375C412.869 411.792 412.119 411.5 411.169 411.5C410.219 411.5 409.46 411.792 408.894 412.375C408.344 412.942 408.069 413.767 408.069 414.85V422.5H404.569V414.85C404.569 413.767 404.294 412.942 403.744 412.375C403.194 411.792 402.444 411.5 401.494 411.5C400.527 411.5 399.76 411.792 399.194 412.375C398.644 412.942 398.369 413.767 398.369 414.85V422.5H394.869V408.65H398.369V410.325C398.819 409.742 399.394 409.283 400.094 408.95C400.81 408.617 401.594 408.45 402.444 408.45C403.527 408.45 404.494 408.683 405.344 409.15C406.194 409.6 406.852 410.25 407.319 411.1C407.769 410.3 408.419 409.658 409.269 409.175C410.135 408.692 411.069 408.45 412.069 408.45ZM422.84 407C422.223 407 421.707 406.808 421.29 406.425C420.89 406.025 420.69 405.533 420.69 404.95C420.69 404.367 420.89 403.883 421.29 403.5C421.707 403.1 422.223 402.9 422.84 402.9C423.457 402.9 423.965 403.1 424.365 403.5C424.782 403.883 424.99 404.367 424.99 404.95C424.99 405.533 424.782 406.025 424.365 406.425C423.965 406.808 423.457 407 422.84 407ZM424.565 408.65V422.5H421.065V408.65H424.565ZM435.698 408.45C437.348 408.45 438.681 408.975 439.698 410.025C440.715 411.058 441.223 412.508 441.223 414.375V422.5H437.723V414.85C437.723 413.75 437.448 412.908 436.898 412.325C436.348 411.725 435.598 411.425 434.648 411.425C433.681 411.425 432.915 411.725 432.348 412.325C431.798 412.908 431.523 413.75 431.523 414.85V422.5H428.023V408.65H431.523V410.375C431.99 409.775 432.581 409.308 433.298 408.975C434.031 408.625 434.831 408.45 435.698 408.45ZM122.075 465.6C122.075 464.2 122.358 462.975 122.925 461.925C123.492 460.858 124.267 460.033 125.25 459.45C126.25 458.867 127.358 458.575 128.575 458.575C129.775 458.575 130.817 458.833 131.7 459.35C132.583 459.867 133.242 460.517 133.675 461.3V458.8H135.975V472.5H133.675V469.95C133.225 470.75 132.55 471.417 131.65 471.95C130.767 472.467 129.733 472.725 128.55 472.725C127.333 472.725 126.233 472.425 125.25 471.825C124.267 471.225 123.492 470.383 122.925 469.3C122.358 468.217 122.075 466.983 122.075 465.6ZM133.675 465.625C133.675 464.592 133.467 463.692 133.05 462.925C132.633 462.158 132.067 461.575 131.35 461.175C130.65 460.758 129.875 460.55 129.025 460.55C128.175 460.55 127.4 460.75 126.7 461.15C126 461.55 125.442 462.133 125.025 462.9C124.608 463.667 124.4 464.567 124.4 465.6C124.4 466.65 124.608 467.567 125.025 468.35C125.442 469.117 126 469.708 126.7 470.125C127.4 470.525 128.175 470.725 129.025 470.725C129.875 470.725 130.65 470.525 131.35 470.125C132.067 469.708 132.633 469.117 133.05 468.35C133.467 467.567 133.675 466.658 133.675 465.625ZM142.595 460.675V468.75C142.595 469.417 142.736 469.892 143.02 470.175C143.303 470.442 143.795 470.575 144.495 470.575H146.17V472.5H144.12C142.853 472.5 141.903 472.208 141.27 471.625C140.636 471.042 140.32 470.083 140.32 468.75V460.675H138.545V458.8H140.32V455.35H142.595V458.8H146.17V460.675H142.595ZM161.426 465.125C161.426 465.558 161.401 466.017 161.351 466.5H150.401C150.484 467.85 150.943 468.908 151.776 469.675C152.626 470.425 153.651 470.8 154.851 470.8C155.834 470.8 156.651 470.575 157.301 470.125C157.968 469.658 158.434 469.042 158.701 468.275H161.151C160.784 469.592 160.051 470.667 158.951 471.5C157.851 472.317 156.484 472.725 154.851 472.725C153.551 472.725 152.384 472.433 151.351 471.85C150.334 471.267 149.534 470.442 148.951 469.375C148.368 468.292 148.076 467.042 148.076 465.625C148.076 464.208 148.359 462.967 148.926 461.9C149.493 460.833 150.284 460.017 151.301 459.45C152.334 458.867 153.518 458.575 154.851 458.575C156.151 458.575 157.301 458.858 158.301 459.425C159.301 459.992 160.068 460.775 160.601 461.775C161.151 462.758 161.426 463.875 161.426 465.125ZM159.076 464.65C159.076 463.783 158.884 463.042 158.501 462.425C158.118 461.792 157.593 461.317 156.926 461C156.276 460.667 155.551 460.5 154.751 460.5C153.601 460.5 152.618 460.867 151.801 461.6C151.001 462.333 150.543 463.35 150.426 464.65H159.076ZM157.201 454.925L151.876 457.775V456.075L157.201 452.95V454.925ZM177.069 472.725C175.786 472.725 174.619 472.433 173.569 471.85C172.536 471.267 171.719 470.442 171.119 469.375C170.536 468.292 170.244 467.042 170.244 465.625C170.244 464.225 170.544 462.992 171.144 461.925C171.761 460.842 172.594 460.017 173.644 459.45C174.694 458.867 175.869 458.575 177.169 458.575C178.469 458.575 179.644 458.867 180.694 459.45C181.744 460.017 182.569 460.833 183.169 461.9C183.786 462.967 184.094 464.208 184.094 465.625C184.094 467.042 183.777 468.292 183.144 469.375C182.527 470.442 181.686 471.267 180.619 471.85C179.552 472.433 178.369 472.725 177.069 472.725ZM177.069 470.725C177.886 470.725 178.652 470.533 179.369 470.15C180.086 469.767 180.661 469.192 181.094 468.425C181.544 467.658 181.769 466.725 181.769 465.625C181.769 464.525 181.552 463.592 181.119 462.825C180.686 462.058 180.119 461.492 179.419 461.125C178.719 460.742 177.961 460.55 177.144 460.55C176.311 460.55 175.544 460.742 174.844 461.125C174.161 461.492 173.611 462.058 173.194 462.825C172.777 463.592 172.569 464.525 172.569 465.625C172.569 466.742 172.769 467.683 173.169 468.45C173.586 469.217 174.136 469.792 174.819 470.175C175.502 470.542 176.252 470.725 177.069 470.725ZM192.9 465.6C192.9 464.2 193.184 462.975 193.75 461.925C194.317 460.858 195.092 460.033 196.075 459.45C197.075 458.867 198.192 458.575 199.425 458.575C200.492 458.575 201.484 458.825 202.4 459.325C203.317 459.808 204.017 460.45 204.5 461.25V454H206.8V472.5H204.5V469.925C204.05 470.742 203.384 471.417 202.5 471.95C201.617 472.467 200.584 472.725 199.4 472.725C198.184 472.725 197.075 472.425 196.075 471.825C195.092 471.225 194.317 470.383 193.75 469.3C193.184 468.217 192.9 466.983 192.9 465.6ZM204.5 465.625C204.5 464.592 204.292 463.692 203.875 462.925C203.459 462.158 202.892 461.575 202.175 461.175C201.475 460.758 200.7 460.55 199.85 460.55C199 460.55 198.225 460.75 197.525 461.15C196.825 461.55 196.267 462.133 195.85 462.9C195.434 463.667 195.225 464.567 195.225 465.6C195.225 466.65 195.434 467.567 195.85 468.35C196.267 469.117 196.825 469.708 197.525 470.125C198.225 470.525 199 470.725 199.85 470.725C200.7 470.725 201.475 470.525 202.175 470.125C202.892 469.708 203.459 469.117 203.875 468.35C204.292 467.567 204.5 466.658 204.5 465.625ZM211.82 456.575C211.386 456.575 211.02 456.425 210.72 456.125C210.42 455.825 210.27 455.458 210.27 455.025C210.27 454.592 210.42 454.225 210.72 453.925C211.02 453.625 211.386 453.475 211.82 453.475C212.236 453.475 212.586 453.625 212.87 453.925C213.17 454.225 213.32 454.592 213.32 455.025C213.32 455.458 213.17 455.825 212.87 456.125C212.586 456.425 212.236 456.575 211.82 456.575ZM212.92 458.8V472.5H210.645V458.8H212.92ZM215.947 465.6C215.947 464.2 216.23 462.975 216.797 461.925C217.364 460.858 218.139 460.033 219.122 459.45C220.122 458.867 221.23 458.575 222.447 458.575C223.647 458.575 224.689 458.833 225.572 459.35C226.455 459.867 227.114 460.517 227.547 461.3V458.8H229.847V472.5H227.547V469.95C227.097 470.75 226.422 471.417 225.522 471.95C224.639 472.467 223.605 472.725 222.422 472.725C221.205 472.725 220.105 472.425 219.122 471.825C218.139 471.225 217.364 470.383 216.797 469.3C216.23 468.217 215.947 466.983 215.947 465.6ZM227.547 465.625C227.547 464.592 227.339 463.692 226.922 462.925C226.505 462.158 225.939 461.575 225.222 461.175C224.522 460.758 223.747 460.55 222.897 460.55C222.047 460.55 221.272 460.75 220.572 461.15C219.872 461.55 219.314 462.133 218.897 462.9C218.48 463.667 218.272 464.567 218.272 465.6C218.272 466.65 218.48 467.567 218.897 468.35C219.314 469.117 219.872 469.708 220.572 470.125C221.272 470.525 222.047 470.725 222.897 470.725C223.747 470.725 224.522 470.525 225.222 470.125C225.939 469.708 226.505 469.117 226.922 468.35C227.339 467.567 227.547 466.658 227.547 465.625ZM239.757 463.15C239.757 460.267 240.273 458.008 241.307 456.375C242.357 454.742 244.09 453.925 246.507 453.925C248.923 453.925 250.648 454.742 251.682 456.375C252.732 458.008 253.257 460.267 253.257 463.15C253.257 466.05 252.732 468.325 251.682 469.975C250.648 471.625 248.923 472.45 246.507 472.45C244.09 472.45 242.357 471.625 241.307 469.975C240.273 468.325 239.757 466.05 239.757 463.15ZM249.807 463.15C249.807 461.917 249.723 460.883 249.557 460.05C249.407 459.2 249.09 458.508 248.607 457.975C248.14 457.442 247.44 457.175 246.507 457.175C245.573 457.175 244.865 457.442 244.382 457.975C243.915 458.508 243.598 459.2 243.432 460.05C243.282 460.883 243.207 461.917 243.207 463.15C243.207 464.417 243.282 465.483 243.432 466.35C243.582 467.2 243.898 467.892 244.382 468.425C244.865 468.942 245.573 469.2 246.507 469.2C247.44 469.2 248.148 468.942 248.632 468.425C249.115 467.892 249.432 467.2 249.582 466.35C249.732 465.483 249.807 464.417 249.807 463.15ZM257.019 468.55C258.619 467.217 259.894 466.108 260.844 465.225C261.794 464.325 262.585 463.392 263.219 462.425C263.852 461.458 264.169 460.508 264.169 459.575C264.169 458.725 263.969 458.058 263.569 457.575C263.169 457.092 262.552 456.85 261.719 456.85C260.885 456.85 260.244 457.133 259.794 457.7C259.344 458.25 259.11 459.008 259.094 459.975H255.694C255.76 457.975 256.352 456.458 257.469 455.425C258.602 454.392 260.035 453.875 261.769 453.875C263.669 453.875 265.127 454.383 266.144 455.4C267.16 456.4 267.669 457.725 267.669 459.375C267.669 460.675 267.319 461.917 266.619 463.1C265.919 464.283 265.119 465.317 264.219 466.2C263.319 467.067 262.144 468.117 260.694 469.35H268.069V472.25H255.719V469.65L257.019 468.55ZM280.049 448.825L273.299 477.025H269.874L276.624 448.825H280.049ZM282.007 457.5V454.275H288.032V472.5H284.432V457.5H282.007ZM291.065 457.5V454.275H297.09V472.5H293.49V457.5H291.065ZM306.005 465.525C306.005 464.125 306.28 462.883 306.83 461.8C307.396 460.717 308.155 459.883 309.105 459.3C310.071 458.717 311.146 458.425 312.33 458.425C313.363 458.425 314.263 458.633 315.03 459.05C315.813 459.467 316.438 459.992 316.905 460.625V458.65H320.43V472.5H316.905V470.475C316.455 471.125 315.83 471.667 315.03 472.1C314.246 472.517 313.338 472.725 312.305 472.725C311.138 472.725 310.071 472.425 309.105 471.825C308.155 471.225 307.396 470.383 306.83 469.3C306.28 468.2 306.005 466.942 306.005 465.525ZM316.905 465.575C316.905 464.725 316.738 464 316.405 463.4C316.071 462.783 315.621 462.317 315.055 462C314.488 461.667 313.88 461.5 313.23 461.5C312.58 461.5 311.98 461.658 311.43 461.975C310.88 462.292 310.43 462.758 310.08 463.375C309.746 463.975 309.58 464.692 309.58 465.525C309.58 466.358 309.746 467.092 310.08 467.725C310.43 468.342 310.88 468.817 311.43 469.15C311.996 469.483 312.596 469.65 313.23 469.65C313.88 469.65 314.488 469.492 315.055 469.175C315.621 468.842 316.071 468.375 316.405 467.775C316.738 467.158 316.905 466.425 316.905 465.575ZM316.43 455.175V457.675L310.68 455.05V452.2L316.43 455.175ZM329.148 472.725C328.015 472.725 326.998 472.525 326.098 472.125C325.198 471.708 324.481 471.15 323.948 470.45C323.431 469.75 323.148 468.975 323.098 468.125H326.623C326.69 468.658 326.948 469.1 327.398 469.45C327.865 469.8 328.44 469.975 329.123 469.975C329.79 469.975 330.306 469.842 330.673 469.575C331.056 469.308 331.248 468.967 331.248 468.55C331.248 468.1 331.015 467.767 330.548 467.55C330.098 467.317 329.373 467.067 328.373 466.8C327.34 466.55 326.49 466.292 325.823 466.025C325.173 465.758 324.606 465.35 324.123 464.8C323.656 464.25 323.423 463.508 323.423 462.575C323.423 461.808 323.64 461.108 324.073 460.475C324.523 459.842 325.156 459.342 325.973 458.975C326.806 458.608 327.781 458.425 328.898 458.425C330.548 458.425 331.865 458.842 332.848 459.675C333.831 460.492 334.373 461.6 334.473 463H331.123C331.073 462.45 330.84 462.017 330.423 461.7C330.023 461.367 329.481 461.2 328.798 461.2C328.165 461.2 327.673 461.317 327.323 461.55C326.99 461.783 326.823 462.108 326.823 462.525C326.823 462.992 327.056 463.35 327.523 463.6C327.99 463.833 328.715 464.075 329.698 464.325C330.698 464.575 331.523 464.833 332.173 465.1C332.823 465.367 333.381 465.783 333.848 466.35C334.331 466.9 334.581 467.633 334.598 468.55C334.598 469.35 334.373 470.067 333.923 470.7C333.49 471.333 332.856 471.833 332.023 472.2C331.206 472.55 330.248 472.725 329.148 472.725ZM342.603 457.5V454.275H348.628V472.5H345.028V457.5H342.603ZM353.186 468.55C354.786 467.217 356.061 466.108 357.011 465.225C357.961 464.325 358.752 463.392 359.386 462.425C360.019 461.458 360.336 460.508 360.336 459.575C360.336 458.725 360.136 458.058 359.736 457.575C359.336 457.092 358.719 456.85 357.886 456.85C357.052 456.85 356.411 457.133 355.961 457.7C355.511 458.25 355.277 459.008 355.261 459.975H351.861C351.927 457.975 352.519 456.458 353.636 455.425C354.769 454.392 356.202 453.875 357.936 453.875C359.836 453.875 361.294 454.383 362.311 455.4C363.327 456.4 363.836 457.725 363.836 459.375C363.836 460.675 363.486 461.917 362.786 463.1C362.086 464.283 361.286 465.317 360.386 466.2C359.486 467.067 358.311 468.117 356.861 469.35H364.236V472.25H351.886V469.65L353.186 468.55ZM374.641 458.45C375.691 458.45 376.625 458.683 377.441 459.15C378.258 459.6 378.891 460.275 379.341 461.175C379.808 462.058 380.041 463.125 380.041 464.375V472.5H376.541V464.85C376.541 463.75 376.266 462.908 375.716 462.325C375.166 461.725 374.416 461.425 373.466 461.425C372.5 461.425 371.733 461.725 371.166 462.325C370.616 462.908 370.341 463.75 370.341 464.85V472.5H366.841V454H370.341V460.375C370.791 459.775 371.391 459.308 372.141 458.975C372.891 458.625 373.725 458.45 374.641 458.45ZM384.295 472.65C383.861 472.65 383.495 472.5 383.195 472.2C382.895 471.9 382.745 471.533 382.745 471.1C382.745 470.667 382.895 470.3 383.195 470C383.495 469.7 383.861 469.55 384.295 469.55C384.711 469.55 385.061 469.7 385.345 470C385.645 470.3 385.795 470.667 385.795 471.1C385.795 471.533 385.645 471.9 385.345 472.2C385.061 472.5 384.711 472.65 384.295 472.65Z" fill="#27293E"/>
<path d="M360.038 325H474.411V326.25H360.038V325ZM121 375H325.021V376.25H121V375Z" fill="#27293E"/>
</svg>
