<svg width="22" height="20" viewBox="0 0 22 20" fill="none" xmlns="http://www.w3.org/2000/svg">
<path d="M21.2288 17.137C21.5068 17.359 21.6648 17.5411 21.6376 17.5752C21.7031 17.6832 21.6487 17.7513 21.5943 17.8194L20.9416 18.6363C20.8872 18.7043 20.8328 18.7724 20.7129 18.7324C20.5931 18.6924 20.4733 18.6525 20.1953 18.4304L0.555834 2.73756C0.277916 2.51549 0.119834 2.33341 0.147032 2.29937C0.0815904 2.19131 0.135987 2.12324 0.190382 2.05516L0.843121 1.23826C0.897516 1.17019 0.95191 1.10211 1.07175 1.1421C1.19158 1.18208 1.40406 1.29609 1.58934 1.44413L21.2288 17.137Z" fill="black"/>
<path d="M11 4.375C4.75 4.375 2.25 10 2.25 10C2.25 10 4.75 15.625 11 15.625C17.25 15.625 19.75 10 19.75 10C19.75 10 17.25 4.375 11 4.375Z" stroke="black" stroke-width="2" stroke-linecap="round" stroke-linejoin="round"/>
<path d="M11 13.125C12.7259 13.125 14.125 11.7259 14.125 10C14.125 8.27411 12.7259 6.875 11 6.875C9.27411 6.875 7.875 8.27411 7.875 10C7.875 11.7259 9.27411 13.125 11 13.125Z" stroke="black" stroke-width="2" stroke-linecap="round" stroke-linejoin="round"/>
</svg>
